<svg xmlns="http://www.w3.org/2000/svg" xmlns:xlink="http://www.w3.org/1999/xlink" zoomAndPan="magnify" viewBox="12 59.5 126 36.5" preserveAspectRatio="xMidYMid meet" version="1.0"><defs><g/><clipPath id="85a852da54"><rect x="0" width="92" y="0" height="20"/></clipPath><clipPath id="c5b0ebdabf"><path d="M 57 9 L 66.960938 9 L 66.960938 17 L 57 17 Z M 57 9 " clip-rule="nonzero"/></clipPath><clipPath id="815cf1f534"><rect x="0" width="67" y="0" height="25"/></clipPath></defs><g transform="matrix(1, 0, 0, 1, 29, 60)"><g clip-path="url(#85a852da54)"><g fill="#FDFCF9" fill-opacity="1"><g transform="translate(0.796574, 15.575551)"><g><path d="M 5.484375 0.1875 C 4.503906 0.1875 3.59375 0.0507812 2.75 -0.21875 C 1.90625 -0.5 1.238281 -0.816406 0.75 -1.171875 L 0.671875 -4.046875 L 0.921875 -4.09375 C 1.191406 -3.363281 1.5625 -2.707031 2.03125 -2.125 C 2.5 -1.539062 3.0625 -1.078125 3.71875 -0.734375 C 4.382812 -0.390625 5.140625 -0.21875 5.984375 -0.21875 C 6.429688 -0.21875 6.847656 -0.304688 7.234375 -0.484375 C 7.617188 -0.671875 7.929688 -0.941406 8.171875 -1.296875 C 8.421875 -1.660156 8.546875 -2.101562 8.546875 -2.625 C 8.546875 -3.101562 8.410156 -3.515625 8.140625 -3.859375 C 7.867188 -4.210938 7.523438 -4.519531 7.109375 -4.78125 C 6.691406 -5.050781 6.253906 -5.285156 5.796875 -5.484375 C 5.335938 -5.679688 4.914062 -5.859375 4.53125 -6.015625 C 3.875 -6.296875 3.269531 -6.578125 2.71875 -6.859375 C 2.175781 -7.140625 1.738281 -7.5 1.40625 -7.9375 C 1.070312 -8.382812 0.90625 -8.976562 0.90625 -9.71875 C 0.90625 -10.90625 1.347656 -11.84375 2.234375 -12.53125 C 3.128906 -13.226562 4.332031 -13.578125 5.84375 -13.578125 C 6.550781 -13.578125 7.21875 -13.503906 7.84375 -13.359375 C 8.46875 -13.222656 9.03125 -13.023438 9.53125 -12.765625 L 9.609375 -10.28125 L 9.390625 -10.203125 C 8.992188 -11.179688 8.414062 -11.929688 7.65625 -12.453125 C 6.894531 -12.984375 6.046875 -13.25 5.109375 -13.25 C 4.335938 -13.25 3.6875 -13.035156 3.15625 -12.609375 C 2.625 -12.179688 2.359375 -11.585938 2.359375 -10.828125 C 2.359375 -10.410156 2.460938 -10.039062 2.671875 -9.71875 C 2.890625 -9.40625 3.171875 -9.132812 3.515625 -8.90625 C 3.867188 -8.675781 4.25 -8.472656 4.65625 -8.296875 C 5.0625 -8.128906 5.457031 -7.96875 5.84375 -7.8125 C 6.320312 -7.625 6.8125 -7.421875 7.3125 -7.203125 C 7.820312 -6.984375 8.289062 -6.722656 8.71875 -6.421875 C 9.144531 -6.128906 9.484375 -5.78125 9.734375 -5.375 C 9.992188 -4.96875 10.125 -4.472656 10.125 -3.890625 C 10.125 -3.242188 9.988281 -2.660156 9.71875 -2.140625 C 9.445312 -1.628906 9.085938 -1.203125 8.640625 -0.859375 C 8.191406 -0.515625 7.691406 -0.253906 7.140625 -0.078125 C 6.585938 0.0976562 6.035156 0.1875 5.484375 0.1875 Z M 5.484375 0.1875 "/></g></g></g><g fill="#FDFCF9" fill-opacity="1"><g transform="translate(11.470109, 15.575551)"><g><path d="M -0.40625 0 L -0.40625 -0.265625 C -0.113281 -0.367188 0.160156 -0.566406 0.421875 -0.859375 C 0.691406 -1.160156 0.953125 -1.628906 1.203125 -2.265625 L 4.796875 -11.171875 C 4.941406 -11.535156 4.929688 -11.882812 4.765625 -12.21875 L 4.515625 -12.75 L 6.390625 -13.59375 L 11.15625 -2.25 C 11.425781 -1.625 11.6875 -1.160156 11.9375 -0.859375 C 12.1875 -0.566406 12.421875 -0.367188 12.640625 -0.265625 L 12.640625 0 L 9.140625 0 L 9.140625 -0.265625 C 9.460938 -0.367188 9.582031 -0.566406 9.5 -0.859375 C 9.414062 -1.160156 9.238281 -1.625 8.96875 -2.25 L 7.8125 -5.015625 L 2.6875 -5.015625 L 1.578125 -2.265625 C 1.316406 -1.628906 1.210938 -1.15625 1.265625 -0.84375 C 1.316406 -0.539062 1.503906 -0.347656 1.828125 -0.265625 L 1.828125 0 Z M 2.796875 -5.3125 L 7.6875 -5.3125 L 5.203125 -11.25 Z M 2.796875 -5.3125 "/></g></g></g><g fill="#FDFCF9" fill-opacity="1"><g transform="translate(23.871373, 15.575551)"><g><path d="M 11.015625 0.15625 L 2.015625 -11.21875 L 2.015625 -3.59375 C 2.015625 -2.8125 2.066406 -2.195312 2.171875 -1.75 C 2.273438 -1.300781 2.429688 -0.96875 2.640625 -0.75 C 2.859375 -0.53125 3.132812 -0.367188 3.46875 -0.265625 L 3.46875 0 L 0.90625 0 L 0.90625 -0.265625 C 1.21875 -0.367188 1.421875 -0.582031 1.515625 -0.90625 C 1.617188 -1.238281 1.671875 -1.75 1.671875 -2.4375 L 1.671875 -11 C 1.671875 -11.695312 1.601562 -12.207031 1.46875 -12.53125 C 1.34375 -12.851562 1.078125 -13.066406 0.671875 -13.171875 L 0.671875 -13.4375 L 2.84375 -13.4375 L 10.90625 -3.34375 L 10.90625 -9.84375 C 10.90625 -10.625 10.851562 -11.238281 10.75 -11.6875 C 10.644531 -12.132812 10.484375 -12.46875 10.265625 -12.6875 C 10.054688 -12.90625 9.785156 -13.066406 9.453125 -13.171875 L 9.453125 -13.4375 L 12.046875 -13.4375 L 12.046875 -13.171875 C 11.722656 -13.066406 11.507812 -12.851562 11.40625 -12.53125 C 11.3125 -12.207031 11.265625 -11.695312 11.265625 -11 L 11.265625 0.15625 Z M 11.015625 0.15625 "/></g></g></g><g fill="#FDFCF9" fill-opacity="1"><g transform="translate(36.63738, 15.575551)"><g><path d="M 8.453125 0.1875 C 6.929688 0.1875 5.613281 -0.0664062 4.5 -0.578125 C 3.382812 -1.097656 2.523438 -1.851562 1.921875 -2.84375 C 1.328125 -3.84375 1.03125 -5.054688 1.03125 -6.484375 C 1.03125 -7.460938 1.210938 -8.375 1.578125 -9.21875 C 1.941406 -10.070312 2.46875 -10.828125 3.15625 -11.484375 C 3.84375 -12.140625 4.660156 -12.648438 5.609375 -13.015625 C 6.566406 -13.390625 7.632812 -13.578125 8.8125 -13.578125 C 9.289062 -13.578125 9.804688 -13.546875 10.359375 -13.484375 C 10.921875 -13.421875 11.453125 -13.320312 11.953125 -13.1875 C 12.460938 -13.050781 12.882812 -12.867188 13.21875 -12.640625 L 13.28125 -10.09375 L 13.0625 -10.046875 C 12.800781 -10.710938 12.421875 -11.273438 11.921875 -11.734375 C 11.421875 -12.203125 10.859375 -12.566406 10.234375 -12.828125 C 9.617188 -13.085938 8.976562 -13.21875 8.3125 -13.21875 C 7.289062 -13.21875 6.382812 -12.992188 5.59375 -12.546875 C 4.8125 -12.097656 4.195312 -11.441406 3.75 -10.578125 C 3.300781 -9.710938 3.078125 -8.640625 3.078125 -7.359375 C 3.078125 -6.429688 3.207031 -5.539062 3.46875 -4.6875 C 3.738281 -3.832031 4.125 -3.066406 4.625 -2.390625 C 5.132812 -1.710938 5.757812 -1.179688 6.5 -0.796875 C 7.238281 -0.410156 8.070312 -0.21875 9 -0.21875 C 10.082031 -0.21875 10.988281 -0.515625 11.71875 -1.109375 C 12.445312 -1.710938 12.984375 -2.515625 13.328125 -3.515625 L 13.578125 -3.46875 L 13.265625 -0.734375 C 12.753906 -0.503906 12.117188 -0.289062 11.359375 -0.09375 C 10.597656 0.09375 9.628906 0.1875 8.453125 0.1875 Z M 8.453125 0.1875 "/></g></g></g><g fill="#FDFCF9" fill-opacity="1"><g transform="translate(51.111921, 15.575551)"><g><path d="M 3.609375 0 L 3.609375 -0.265625 C 3.929688 -0.367188 4.140625 -0.582031 4.234375 -0.90625 C 4.328125 -1.238281 4.375 -1.75 4.375 -2.4375 L 4.375 -13.09375 L 3.78125 -13.09375 C 2.925781 -13.09375 2.253906 -12.945312 1.765625 -12.65625 C 1.273438 -12.375 0.851562 -11.847656 0.5 -11.078125 L 0.265625 -11.125 L 0.390625 -13.4375 L 10.390625 -13.4375 L 10.5 -11.125 L 10.28125 -11.078125 C 9.914062 -11.847656 9.488281 -12.375 9 -12.65625 C 8.519531 -12.945312 7.847656 -13.09375 6.984375 -13.09375 L 6.4375 -13.09375 L 6.4375 -2.4375 C 6.4375 -1.75 6.484375 -1.238281 6.578125 -0.90625 C 6.671875 -0.582031 6.878906 -0.367188 7.203125 -0.265625 L 7.203125 0 Z M 3.609375 0 "/></g></g></g><g fill="#FDFCF9" fill-opacity="1"><g transform="translate(61.919836, 15.575551)"><g><path d="M 7.09375 0.1875 C 6.394531 0.1875 5.710938 0.0976562 5.046875 -0.078125 C 4.378906 -0.253906 3.773438 -0.550781 3.234375 -0.96875 C 2.703125 -1.382812 2.273438 -1.9375 1.953125 -2.625 C 1.640625 -3.320312 1.484375 -4.1875 1.484375 -5.21875 L 1.484375 -11 C 1.484375 -11.695312 1.429688 -12.207031 1.328125 -12.53125 C 1.234375 -12.851562 1.023438 -13.066406 0.703125 -13.171875 L 0.703125 -13.4375 L 4.28125 -13.4375 L 4.28125 -13.171875 C 3.957031 -13.066406 3.75 -12.851562 3.65625 -12.53125 C 3.5625 -12.207031 3.515625 -11.695312 3.515625 -11 L 3.515625 -5.0625 C 3.515625 -3.90625 3.691406 -2.972656 4.046875 -2.265625 C 4.410156 -1.554688 4.914062 -1.046875 5.5625 -0.734375 C 6.21875 -0.421875 6.984375 -0.265625 7.859375 -0.265625 C 8.265625 -0.265625 8.679688 -0.347656 9.109375 -0.515625 C 9.535156 -0.679688 9.9375 -0.953125 10.3125 -1.328125 C 10.6875 -1.710938 10.988281 -2.21875 11.21875 -2.84375 C 11.445312 -3.46875 11.5625 -4.25 11.5625 -5.1875 L 11.5625 -9.84375 C 11.5625 -10.625 11.507812 -11.238281 11.40625 -11.6875 C 11.300781 -12.132812 11.140625 -12.46875 10.921875 -12.6875 C 10.703125 -12.90625 10.425781 -13.066406 10.09375 -13.171875 L 10.09375 -13.4375 L 12.671875 -13.4375 L 12.671875 -13.171875 C 12.347656 -13.066406 12.140625 -12.851562 12.046875 -12.53125 C 11.953125 -12.207031 11.90625 -11.695312 11.90625 -11 L 11.90625 -5.21875 C 11.90625 -3.9375 11.695312 -2.894531 11.28125 -2.09375 C 10.863281 -1.300781 10.289062 -0.722656 9.5625 -0.359375 C 8.84375 0.00390625 8.019531 0.1875 7.09375 0.1875 Z M 7.09375 0.1875 "/></g></g></g><g fill="#FDFCF9" fill-opacity="1"><g transform="translate(75.165769, 15.575551)"><g><path d="M 0.8125 0 L 0.8125 -0.265625 C 1.125 -0.367188 1.328125 -0.582031 1.421875 -0.90625 C 1.523438 -1.238281 1.578125 -1.75 1.578125 -2.4375 L 1.578125 -9.84375 C 1.578125 -10.625 1.523438 -11.238281 1.421875 -11.6875 C 1.328125 -12.132812 1.179688 -12.46875 0.984375 -12.6875 C 0.796875 -12.90625 0.554688 -13.066406 0.265625 -13.171875 L 0.265625 -13.4375 L 3.15625 -13.4375 L 7.890625 -5.5625 L 12.40625 -13.4375 L 15.125 -13.4375 L 15.125 -13.171875 C 14.832031 -13.066406 14.585938 -12.90625 14.390625 -12.6875 C 14.203125 -12.46875 14.0625 -12.132812 13.96875 -11.6875 C 13.875 -11.238281 13.828125 -10.625 13.828125 -9.84375 L 13.828125 -2.4375 C 13.828125 -1.75 13.875 -1.238281 13.96875 -0.90625 C 14.0625 -0.582031 14.269531 -0.367188 14.59375 -0.265625 L 14.59375 0 L 11.015625 0 L 11.015625 -0.265625 C 11.335938 -0.367188 11.546875 -0.582031 11.640625 -0.90625 C 11.742188 -1.238281 11.796875 -1.75 11.796875 -2.4375 L 11.796875 -11.734375 L 7.1875 -3.65625 L 6.734375 -3.65625 L 1.921875 -11.5625 L 1.921875 -3.59375 C 1.921875 -2.8125 1.972656 -2.195312 2.078125 -1.75 C 2.179688 -1.300781 2.335938 -0.96875 2.546875 -0.75 C 2.765625 -0.53125 3.039062 -0.367188 3.375 -0.265625 L 3.375 0 Z M 0.8125 0 "/></g></g></g></g></g><g transform="matrix(1, 0, 0, 1, 42, 70)"><g clip-path="url(#815cf1f534)"><g fill="#ebe1db" fill-opacity="1"><g transform="translate(0.696547, 16.281008)"><g><path d="M 13.183594 -13.15625 C 13.597656 -13.15625 13.925781 -13.058594 14.167969 -12.867188 C 14.316406 -12.75 14.425781 -12.605469 14.496094 -12.429688 C 14.5625 -12.277344 14.59375 -12.105469 14.59375 -11.917969 C 14.59375 -11.46875 14.433594 -11.011719 14.109375 -10.542969 C 13.824219 -10.128906 13.40625 -9.695312 12.851562 -9.25 C 11.835938 -8.441406 10.597656 -7.742188 9.132812 -7.15625 C 7.585938 -6.542969 6.15625 -6.207031 4.839844 -6.144531 L 4.8125 -6.71875 L 5.238281 -6.332031 C 4.34375 -5.339844 3.671875 -4.464844 3.230469 -3.699219 C 2.820312 -2.984375 2.613281 -2.390625 2.613281 -1.914062 C 2.613281 -1.585938 2.679688 -1.335938 2.816406 -1.164062 C 2.949219 -1 3.164062 -0.886719 3.464844 -0.824219 L 3.351562 -0.261719 L 2.773438 -0.261719 C 2.773438 -2.019531 3.378906 -3.605469 4.582031 -5.023438 C 5.335938 -5.910156 6.199219 -6.527344 7.167969 -6.882812 C 7.660156 -7.066406 8.179688 -7.15625 8.726562 -7.15625 C 9.34375 -7.15625 9.839844 -6.996094 10.210938 -6.667969 C 10.40625 -6.5 10.554688 -6.300781 10.65625 -6.078125 C 10.753906 -5.855469 10.804688 -5.613281 10.804688 -5.351562 C 10.804688 -4.921875 10.714844 -4.476562 10.535156 -4.011719 C 10.367188 -3.570312 10.132812 -3.132812 9.828125 -2.699219 C 9.53125 -2.269531 9.171875 -1.859375 8.75 -1.460938 C 8.328125 -1.066406 7.855469 -0.714844 7.339844 -0.410156 C 6.203125 0.257812 5.015625 0.59375 3.773438 0.59375 L 3.691406 0.59375 C 3.628906 0.59375 3.566406 0.585938 3.496094 0.574219 L 3.609375 0.0078125 L 4.183594 -0.0117188 C 4.203125 0.472656 4.25 0.875 4.328125 1.199219 C 4.398438 1.484375 4.488281 1.699219 4.597656 1.839844 C 4.699219 1.96875 4.75 2.109375 4.75 2.261719 L 4.75 2.308594 C 4.75 2.421875 4.722656 2.527344 4.664062 2.625 C 4.609375 2.71875 4.53125 2.789062 4.433594 2.84375 C 4.335938 2.898438 4.222656 2.929688 4.09375 2.929688 C 3.734375 2.929688 3.449219 2.695312 3.242188 2.234375 C 3.117188 1.960938 3.003906 1.566406 2.894531 1.050781 C 2.828125 0.730469 2.789062 0.386719 2.773438 0.0117188 L 3.351562 -0.0078125 L 3.273438 0.5625 C 2.730469 0.488281 2.273438 0.304688 1.898438 0.0195312 C 1.515625 -0.273438 1.230469 -0.667969 1.042969 -1.160156 C 0.921875 -1.484375 0.863281 -1.851562 0.863281 -2.253906 C 0.863281 -3.785156 1.539062 -5.425781 2.894531 -7.167969 L 3.351562 -6.816406 L 3.222656 -6.253906 C 2.632812 -6.390625 2.144531 -6.613281 1.753906 -6.929688 C 1.347656 -7.257812 1.058594 -7.675781 0.882812 -8.183594 C 0.78125 -8.496094 0.726562 -8.828125 0.726562 -9.179688 C 0.726562 -9.554688 0.824219 -9.941406 1.019531 -10.335938 C 1.203125 -10.703125 1.449219 -11.054688 1.769531 -11.390625 C 2.074219 -11.71875 2.4375 -12.023438 2.859375 -12.3125 C 3.277344 -12.597656 3.734375 -12.84375 4.226562 -13.058594 C 5.304688 -13.519531 6.40625 -13.75 7.527344 -13.75 C 7.808594 -13.75 8.03125 -13.734375 8.191406 -13.699219 C 8.316406 -13.671875 8.425781 -13.632812 8.515625 -13.574219 C 8.597656 -13.523438 8.664062 -13.457031 8.71875 -13.382812 C 8.792969 -13.273438 8.828125 -13.152344 8.828125 -13.023438 C 8.828125 -12.914062 8.804688 -12.8125 8.75 -12.71875 C 8.699219 -12.617188 8.621094 -12.539062 8.527344 -12.480469 C 8.414062 -12.410156 8.285156 -12.375 8.136719 -12.375 L 8.121094 -12.375 L 7.449219 -12.414062 L 7.480469 -12.988281 L 7.480469 -12.410156 C 6.335938 -12.410156 5.179688 -12.019531 4.011719 -11.234375 C 3.28125 -10.746094 2.769531 -10.203125 2.472656 -9.613281 C 2.332031 -9.339844 2.261719 -9.109375 2.261719 -8.921875 C 2.261719 -8.726562 2.289062 -8.570312 2.335938 -8.464844 C 2.390625 -8.34375 2.46875 -8.230469 2.570312 -8.121094 C 2.8125 -7.871094 3.167969 -7.691406 3.640625 -7.582031 L 3.511719 -7.023438 L 3.0625 -7.382812 C 4.367188 -8.996094 5.941406 -10.34375 7.792969 -11.433594 C 9.75 -12.582031 11.546875 -13.15625 13.183594 -13.15625 Z M 13.183594 -12.007812 C 11.753906 -12.007812 10.152344 -11.484375 8.375 -10.445312 C 6.644531 -9.425781 5.171875 -8.164062 3.957031 -6.660156 L 3.734375 -6.382812 L 3.382812 -6.460938 C 2.691406 -6.621094 2.144531 -6.90625 1.742188 -7.324219 C 1.542969 -7.53125 1.390625 -7.753906 1.285156 -8 C 1.171875 -8.253906 1.113281 -8.5625 1.113281 -8.921875 C 1.113281 -9.292969 1.222656 -9.695312 1.445312 -10.128906 C 1.832031 -10.902344 2.472656 -11.585938 3.371094 -12.1875 C 4.730469 -13.105469 6.101562 -13.5625 7.480469 -13.5625 L 7.496094 -13.5625 L 8.167969 -13.523438 L 8.136719 -12.949219 L 8.136719 -13.527344 C 8.066406 -13.527344 7.996094 -13.503906 7.921875 -13.457031 C 7.84375 -13.410156 7.785156 -13.347656 7.742188 -13.265625 C 7.699219 -13.1875 7.679688 -13.109375 7.679688 -13.023438 C 7.679688 -12.917969 7.707031 -12.820312 7.765625 -12.734375 C 7.804688 -12.679688 7.847656 -12.636719 7.902344 -12.601562 C 7.921875 -12.589844 7.941406 -12.578125 7.960938 -12.574219 C 7.964844 -12.570312 7.964844 -12.570312 7.964844 -12.570312 C 7.960938 -12.574219 7.957031 -12.574219 7.953125 -12.574219 C 7.871094 -12.589844 7.730469 -12.601562 7.527344 -12.601562 C 6.5625 -12.601562 5.613281 -12.398438 4.679688 -12 C 4.253906 -11.816406 3.863281 -11.605469 3.507812 -11.363281 C 3.15625 -11.121094 2.855469 -10.871094 2.605469 -10.605469 C 2.367188 -10.347656 2.179688 -10.089844 2.050781 -9.824219 C 1.933594 -9.59375 1.878906 -9.375 1.878906 -9.179688 C 1.878906 -8.953125 1.910156 -8.746094 1.972656 -8.554688 C 2.074219 -8.257812 2.242188 -8.011719 2.476562 -7.824219 C 2.726562 -7.621094 3.0625 -7.472656 3.476562 -7.378906 L 4.359375 -7.175781 L 3.804688 -6.464844 C 2.609375 -4.925781 2.011719 -3.523438 2.011719 -2.253906 C 2.011719 -1.988281 2.046875 -1.761719 2.117188 -1.570312 C 2.230469 -1.28125 2.386719 -1.054688 2.597656 -0.894531 C 2.8125 -0.730469 3.089844 -0.625 3.425781 -0.578125 L 3.90625 -0.511719 L 3.925781 -0.0273438 C 3.933594 0.28125 3.96875 0.5625 4.019531 0.816406 C 4.109375 1.25 4.199219 1.5625 4.289062 1.761719 C 4.316406 1.824219 4.335938 1.859375 4.347656 1.871094 C 4.332031 1.855469 4.308594 1.839844 4.277344 1.824219 C 4.222656 1.792969 4.160156 1.777344 4.09375 1.777344 C 4.023438 1.777344 3.949219 1.796875 3.875 1.839844 C 3.792969 1.886719 3.726562 1.949219 3.679688 2.03125 C 3.625 2.117188 3.601562 2.210938 3.601562 2.308594 L 3.601562 2.261719 C 3.601562 2.34375 3.617188 2.417969 3.652344 2.488281 C 3.664062 2.511719 3.675781 2.53125 3.683594 2.542969 C 3.292969 2.03125 3.074219 1.195312 3.035156 0.0273438 L 3.011719 -0.695312 L 3.722656 -0.554688 C 3.714844 -0.554688 3.707031 -0.558594 3.691406 -0.558594 L 3.773438 -0.558594 C 4.804688 -0.558594 5.800781 -0.839844 6.757812 -1.402344 C 7.199219 -1.664062 7.601562 -1.960938 7.964844 -2.300781 C 8.328125 -2.640625 8.632812 -2.992188 8.886719 -3.355469 C 9.136719 -3.710938 9.328125 -4.066406 9.464844 -4.421875 C 9.589844 -4.753906 9.65625 -5.0625 9.65625 -5.351562 C 9.65625 -5.449219 9.636719 -5.535156 9.605469 -5.609375 C 9.574219 -5.679688 9.523438 -5.746094 9.457031 -5.804688 C 9.300781 -5.941406 9.058594 -6.007812 8.726562 -6.007812 C 8.320312 -6.007812 7.929688 -5.9375 7.558594 -5.800781 C 6.78125 -5.515625 6.082031 -5.011719 5.457031 -4.28125 C 4.4375 -3.074219 3.925781 -1.734375 3.925781 -0.261719 L 3.925781 0.445312 L 3.234375 0.300781 C 2.660156 0.183594 2.222656 -0.0664062 1.917969 -0.449219 C 1.613281 -0.832031 1.464844 -1.316406 1.464844 -1.914062 C 1.464844 -2.597656 1.722656 -3.382812 2.234375 -4.273438 C 2.71875 -5.109375 3.433594 -6.050781 4.386719 -7.105469 L 4.546875 -7.28125 L 4.785156 -7.292969 C 5.972656 -7.347656 7.28125 -7.660156 8.703125 -8.222656 C 10.066406 -8.769531 11.207031 -9.410156 12.132812 -10.148438 C 12.597656 -10.523438 12.941406 -10.871094 13.164062 -11.195312 C 13.351562 -11.464844 13.445312 -11.707031 13.445312 -11.917969 C 13.445312 -11.953125 13.441406 -11.972656 13.4375 -11.988281 C 13.441406 -11.980469 13.445312 -11.972656 13.453125 -11.964844 C 13.445312 -11.972656 13.429688 -11.976562 13.402344 -11.984375 C 13.347656 -12 13.273438 -12.007812 13.183594 -12.007812 Z M 13.230469 -11.890625 C 13.230469 -11.882812 13.234375 -11.867188 13.242188 -11.847656 C 13.257812 -11.8125 13.28125 -11.789062 13.304688 -11.773438 C 13.308594 -11.769531 13.3125 -11.769531 13.3125 -11.765625 C 13.304688 -11.769531 13.296875 -11.773438 13.28125 -11.777344 C 13.238281 -11.785156 13.175781 -11.792969 13.101562 -11.792969 C 12.753906 -11.792969 12.308594 -11.671875 11.765625 -11.425781 C 11.179688 -11.164062 10.496094 -10.765625 9.71875 -10.230469 C 8.183594 -9.1875 6.765625 -7.96875 5.457031 -6.566406 L 5.039062 -6.960938 L 4.976562 -7.53125 C 6.554688 -7.703125 8.355469 -8.359375 10.378906 -9.5 C 11.558594 -10.167969 12.417969 -10.804688 12.949219 -11.414062 C 13.054688 -11.539062 13.132812 -11.652344 13.183594 -11.75 C 13.214844 -11.808594 13.230469 -11.859375 13.230469 -11.890625 Z M 14.378906 -11.890625 C 14.378906 -11.5 14.191406 -11.089844 13.816406 -10.660156 C 13.195312 -9.953125 12.238281 -9.230469 10.941406 -8.5 C 8.785156 -7.28125 6.835938 -6.578125 5.101562 -6.390625 L 3.5625 -6.222656 L 4.617188 -7.351562 C 5.984375 -8.816406 7.464844 -10.089844 9.066406 -11.179688 C 9.902344 -11.753906 10.644531 -12.183594 11.292969 -12.476562 C 11.988281 -12.785156 12.589844 -12.941406 13.101562 -12.941406 C 13.453125 -12.941406 13.738281 -12.867188 13.953125 -12.722656 C 14.09375 -12.625 14.203125 -12.503906 14.277344 -12.351562 C 14.34375 -12.210938 14.378906 -12.058594 14.378906 -11.890625 Z M 3.691406 -0.792969 C 3.707031 -0.792969 3.722656 -0.789062 3.734375 -0.789062 L 3.871094 -0.789062 C 4.503906 -0.789062 5.222656 -1.09375 6.03125 -1.699219 C 6.789062 -2.273438 7.457031 -2.976562 8.03125 -3.8125 C 8.308594 -4.214844 8.511719 -4.578125 8.648438 -4.898438 C 8.769531 -5.1875 8.828125 -5.433594 8.828125 -5.640625 C 8.828125 -5.699219 8.824219 -5.738281 8.8125 -5.765625 C 8.816406 -5.757812 8.828125 -5.746094 8.839844 -5.734375 C 8.84375 -5.730469 8.847656 -5.726562 8.851562 -5.726562 C 8.839844 -5.730469 8.824219 -5.738281 8.804688 -5.742188 C 8.738281 -5.757812 8.648438 -5.765625 8.535156 -5.765625 C 8.292969 -5.765625 8.015625 -5.707031 7.703125 -5.585938 C 7.371094 -5.460938 7.042969 -5.28125 6.714844 -5.046875 C 6.382812 -4.808594 6.058594 -4.515625 5.753906 -4.175781 C 5.445312 -3.835938 5.171875 -3.457031 4.9375 -3.039062 C 4.4375 -2.148438 4.183594 -1.210938 4.183594 -0.234375 L 4.183594 -0.222656 L 3.609375 -0.222656 Z M 3.035156 0.273438 L 3.035156 -0.234375 C 3.035156 -1.410156 3.335938 -2.535156 3.9375 -3.605469 C 4.214844 -4.097656 4.535156 -4.546875 4.898438 -4.949219 C 5.261719 -5.347656 5.644531 -5.695312 6.046875 -5.980469 C 6.453125 -6.273438 6.871094 -6.5 7.292969 -6.664062 C 7.738281 -6.832031 8.152344 -6.914062 8.535156 -6.914062 C 8.988281 -6.914062 9.332031 -6.816406 9.570312 -6.625 C 9.839844 -6.402344 9.976562 -6.074219 9.976562 -5.640625 C 9.976562 -4.957031 9.644531 -4.132812 8.976562 -3.160156 C 8.332031 -2.222656 7.582031 -1.429688 6.722656 -0.78125 C 5.710938 -0.0195312 4.757812 0.359375 3.871094 0.359375 L 3.734375 0.359375 C 3.667969 0.359375 3.597656 0.355469 3.527344 0.34375 Z M 3.035156 0.273438 "/></g></g></g><g fill="#ebe1db" fill-opacity="1"><g transform="translate(12.818242, 16.281008)"><g><path d="M 4.042969 -0.871094 C 3.832031 -0.871094 3.640625 -0.917969 3.476562 -1.011719 C 3.300781 -1.109375 3.160156 -1.25 3.054688 -1.433594 L 3.554688 -1.714844 L 3.988281 -1.335938 C 3.207031 -0.449219 2.351562 0.144531 1.421875 0.441406 C 1.089844 0.542969 0.761719 0.59375 0.445312 0.59375 C 0.125 0.59375 -0.15625 0.554688 -0.402344 0.476562 C -0.664062 0.390625 -0.886719 0.265625 -1.066406 0.105469 C -1.425781 -0.207031 -1.621094 -0.621094 -1.65625 -1.140625 C -1.683594 -1.585938 -1.585938 -2.101562 -1.363281 -2.691406 C -1.199219 -3.132812 -0.984375 -3.546875 -0.722656 -3.933594 C -0.464844 -4.3125 -0.175781 -4.660156 0.144531 -4.980469 C 0.46875 -5.304688 0.8125 -5.589844 1.183594 -5.84375 C 2.054688 -6.433594 2.917969 -6.726562 3.773438 -6.726562 C 4.210938 -6.726562 4.597656 -6.609375 4.929688 -6.371094 C 5.117188 -6.238281 5.265625 -6.070312 5.367188 -5.871094 C 5.46875 -5.679688 5.527344 -5.464844 5.539062 -5.230469 C 5.5625 -4.871094 5.539062 -4.535156 5.476562 -4.214844 C 5.414062 -3.914062 5.324219 -3.609375 5.203125 -3.308594 C 4.96875 -2.703125 4.632812 -2.132812 4.203125 -1.597656 L 3.753906 -1.957031 L 4.3125 -2.09375 C 4.300781 -2.140625 4.269531 -2.183594 4.21875 -2.222656 C 4.191406 -2.242188 4.160156 -2.257812 4.128906 -2.265625 C 4.117188 -2.269531 4.105469 -2.273438 4.101562 -2.273438 C 4.195312 -2.273438 4.289062 -2.292969 4.378906 -2.339844 C 4.519531 -2.410156 4.660156 -2.5 4.804688 -2.609375 C 4.957031 -2.726562 5.105469 -2.851562 5.253906 -2.996094 C 5.414062 -3.148438 5.558594 -3.296875 5.691406 -3.433594 L 6.105469 -3.035156 L 5.679688 -3.421875 L 6.023438 -3.796875 L 6.449219 -3.414062 L 6.007812 -3.78125 C 6.113281 -3.910156 6.195312 -4 6.25 -4.054688 L 6.605469 -4.410156 L 7.742188 -3.53125 L 7.242188 -3.070312 C 7.175781 -3.011719 7.089844 -2.921875 6.980469 -2.800781 C 6.855469 -2.664062 6.714844 -2.515625 6.558594 -2.359375 L 6.070312 -1.882812 L 6.066406 -1.875 C 5.339844 -1.207031 4.664062 -0.871094 4.042969 -0.871094 Z M 4.042969 -2.019531 C 4.183594 -2.019531 4.351562 -2.070312 4.539062 -2.167969 C 4.765625 -2.289062 5.015625 -2.472656 5.285156 -2.722656 L 5.675781 -2.300781 L 5.273438 -2.710938 L 5.746094 -3.171875 C 5.890625 -3.316406 6.015625 -3.449219 6.128906 -3.574219 C 6.261719 -3.71875 6.371094 -3.832031 6.460938 -3.914062 L 6.851562 -3.492188 L 6.5 -3.039062 L 6.304688 -3.191406 L 6.65625 -3.644531 L 7.0625 -3.238281 C 7.03125 -3.210938 6.972656 -3.144531 6.886719 -3.042969 L 6.882812 -3.035156 L 6.527344 -2.644531 L 6.523438 -2.636719 C 6.378906 -2.488281 6.222656 -2.332031 6.050781 -2.167969 C 5.871094 -1.992188 5.6875 -1.835938 5.496094 -1.691406 C 5.300781 -1.542969 5.101562 -1.417969 4.898438 -1.316406 C 4.648438 -1.1875 4.378906 -1.121094 4.101562 -1.121094 C 3.878906 -1.121094 3.6875 -1.183594 3.527344 -1.304688 C 3.359375 -1.429688 3.25 -1.601562 3.195312 -1.824219 L 3.128906 -2.097656 L 3.304688 -2.316406 C 3.664062 -2.761719 3.941406 -3.234375 4.136719 -3.734375 C 4.230469 -3.972656 4.300781 -4.207031 4.347656 -4.441406 C 4.394531 -4.664062 4.40625 -4.902344 4.394531 -5.160156 C 4.386719 -5.234375 4.375 -5.292969 4.351562 -5.335938 C 4.332031 -5.375 4.300781 -5.40625 4.257812 -5.4375 C 4.128906 -5.53125 3.964844 -5.578125 3.773438 -5.578125 C 3.152344 -5.578125 2.507812 -5.351562 1.832031 -4.894531 C 1.523438 -4.683594 1.230469 -4.441406 0.957031 -4.167969 C 0.6875 -3.898438 0.445312 -3.605469 0.226562 -3.285156 C 0.0195312 -2.976562 -0.15625 -2.644531 -0.289062 -2.285156 C -0.453125 -1.851562 -0.527344 -1.496094 -0.507812 -1.21875 C -0.496094 -1.015625 -0.425781 -0.859375 -0.296875 -0.75 C -0.238281 -0.699219 -0.15625 -0.652344 -0.046875 -0.617188 C 0.0820312 -0.578125 0.246094 -0.558594 0.445312 -0.558594 C 0.648438 -0.558594 0.859375 -0.589844 1.074219 -0.65625 C 1.800781 -0.886719 2.484375 -1.367188 3.125 -2.09375 L 3.660156 -2.699219 L 4.054688 -2 C 4.050781 -2.003906 4.042969 -2.011719 4.035156 -2.015625 C 4.027344 -2.019531 4.023438 -2.023438 4.019531 -2.023438 C 4.023438 -2.019531 4.03125 -2.019531 4.042969 -2.019531 Z M 0.570312 -0.835938 C 0.570312 -0.839844 0.566406 -0.839844 0.5625 -0.839844 L 0.566406 -0.839844 C 0.570312 -0.839844 0.578125 -0.835938 0.585938 -0.835938 C 0.621094 -0.828125 0.664062 -0.828125 0.71875 -0.828125 C 0.832031 -0.828125 0.976562 -0.863281 1.15625 -0.941406 C 1.367188 -1.035156 1.609375 -1.179688 1.882812 -1.375 C 2.3125 -1.679688 2.691406 -2.035156 3.027344 -2.433594 L 3.464844 -2.066406 L 2.890625 -2.066406 L 2.890625 -2.101562 C 2.890625 -2.445312 2.960938 -2.753906 3.097656 -3.027344 C 3.238281 -3.308594 3.445312 -3.542969 3.722656 -3.726562 L 4.042969 -3.25 L 3.710938 -3.722656 C 3.859375 -3.824219 4.003906 -3.902344 4.148438 -3.949219 L 4.328125 -3.402344 L 3.808594 -3.648438 C 4.054688 -4.171875 4.171875 -4.582031 4.160156 -4.878906 C 4.152344 -4.984375 4.136719 -5.074219 4.117188 -5.152344 C 4.101562 -5.199219 4.089844 -5.234375 4.074219 -5.257812 C 4.070312 -5.257812 4.070312 -5.257812 4.070312 -5.257812 C 4.074219 -5.253906 4.078125 -5.253906 4.082031 -5.25 C 4.074219 -5.253906 4.0625 -5.253906 4.050781 -5.253906 C 3.960938 -5.253906 3.847656 -5.222656 3.710938 -5.160156 C 3.539062 -5.078125 3.347656 -4.953125 3.136719 -4.785156 C 2.675781 -4.410156 2.136719 -3.84375 1.527344 -3.082031 C 1.144531 -2.601562 0.867188 -2.179688 0.691406 -1.816406 C 0.542969 -1.507812 0.476562 -1.265625 0.492188 -1.082031 L 0.492188 -1.03125 C 0.492188 -0.96875 0.503906 -0.917969 0.519531 -0.886719 C 0.53125 -0.867188 0.554688 -0.847656 0.589844 -0.828125 L 0.3125 -0.324219 Z M 0.0585938 0.191406 L 0.046875 0.1875 L 0.0390625 0.179688 C -0.191406 0.0546875 -0.363281 -0.113281 -0.484375 -0.328125 C -0.597656 -0.535156 -0.65625 -0.769531 -0.65625 -1.03125 L -0.0820312 -1.03125 L -0.652344 -0.984375 C -0.6875 -1.375 -0.582031 -1.820312 -0.34375 -2.316406 C -0.132812 -2.753906 0.191406 -3.25 0.628906 -3.800781 C 1.292969 -4.628906 1.890625 -5.253906 2.417969 -5.679688 C 3.019531 -6.164062 3.5625 -6.402344 4.050781 -6.402344 C 4.242188 -6.402344 4.417969 -6.367188 4.578125 -6.289062 C 4.742188 -6.210938 4.882812 -6.09375 4.996094 -5.9375 C 5.179688 -5.691406 5.28125 -5.355469 5.308594 -4.929688 C 5.328125 -4.445312 5.175781 -3.855469 4.847656 -3.160156 L 4.746094 -2.9375 L 4.511719 -2.859375 C 4.472656 -2.847656 4.429688 -2.820312 4.371094 -2.78125 L 4.363281 -2.773438 C 4.253906 -2.703125 4.175781 -2.613281 4.125 -2.511719 C 4.070312 -2.402344 4.042969 -2.265625 4.042969 -2.101562 L 4.042969 -1.855469 L 3.90625 -1.695312 C 3.511719 -1.222656 3.058594 -0.804688 2.554688 -0.441406 C 1.84375 0.0703125 1.230469 0.324219 0.71875 0.324219 C 0.453125 0.324219 0.234375 0.277344 0.0585938 0.191406 Z M 0.0585938 0.191406 "/></g></g></g><g fill="#ebe1db" fill-opacity="1"><g transform="translate(19.408853, 16.281008)"><g><path d="M 0.21875 0.394531 C 0.0898438 0.371094 -0.0546875 0.359375 -0.214844 0.359375 C -0.484375 0.359375 -0.71875 0.382812 -0.910156 0.433594 L -2.402344 0.804688 L 1.59375 -4.910156 C 1.785156 -5.175781 1.925781 -5.382812 2.019531 -5.535156 C 2.058594 -5.601562 2.089844 -5.652344 2.109375 -5.6875 C 2.113281 -5.695312 2.113281 -5.699219 2.117188 -5.703125 C 2.105469 -5.679688 2.101562 -5.652344 2.097656 -5.617188 C 2.097656 -5.621094 2.097656 -5.625 2.097656 -5.628906 C 2.097656 -5.621094 2.097656 -5.613281 2.097656 -5.605469 C 2.105469 -5.558594 2.125 -5.511719 2.152344 -5.464844 C 2.199219 -5.394531 2.257812 -5.339844 2.332031 -5.308594 C 2.382812 -5.285156 2.429688 -5.273438 2.480469 -5.273438 C 2.535156 -5.273438 2.578125 -5.28125 2.617188 -5.296875 C 2.613281 -5.296875 2.601562 -5.289062 2.582031 -5.273438 C 2.511719 -5.226562 2.421875 -5.144531 2.304688 -5.027344 C 2.042969 -4.769531 1.699219 -4.375 1.273438 -3.84375 L 0.621094 -3.035156 L 0.507812 -2.980469 C 0.355469 -2.902344 0.191406 -2.886719 0.0273438 -2.929688 C -0.09375 -2.964844 -0.207031 -3.03125 -0.304688 -3.128906 C -0.390625 -3.214844 -0.449219 -3.304688 -0.484375 -3.40625 C -0.523438 -3.511719 -0.53125 -3.617188 -0.515625 -3.722656 C -0.492188 -3.851562 -0.4375 -3.960938 -0.34375 -4.054688 L 0.0625 -3.644531 L -0.355469 -4.039062 C -0.195312 -4.210938 -0.0117188 -4.433594 0.195312 -4.703125 C 0.421875 -5 0.664062 -5.285156 0.914062 -5.558594 C 1.238281 -5.921875 1.539062 -6.195312 1.824219 -6.386719 C 2.164062 -6.613281 2.492188 -6.726562 2.800781 -6.726562 C 3.039062 -6.726562 3.246094 -6.691406 3.421875 -6.625 C 3.648438 -6.535156 3.820312 -6.394531 3.941406 -6.199219 C 4.144531 -5.875 4.152344 -5.457031 3.972656 -4.945312 C 3.910156 -4.753906 3.78125 -4.519531 3.585938 -4.246094 L 1.695312 -1.621094 L 1.230469 -1.957031 L 1.753906 -2.195312 L 1.796875 -2.097656 L 1.273438 -1.859375 L 0.851562 -2.246094 C 2.375 -3.917969 3.464844 -5.027344 4.121094 -5.578125 C 4.789062 -6.132812 5.308594 -6.464844 5.679688 -6.574219 C 6.03125 -6.675781 6.324219 -6.726562 6.570312 -6.726562 C 6.832031 -6.726562 7.066406 -6.6875 7.269531 -6.605469 C 7.476562 -6.523438 7.648438 -6.410156 7.789062 -6.269531 C 8.058594 -6 8.191406 -5.675781 8.1875 -5.296875 C 8.183594 -5.011719 8.128906 -4.730469 8.027344 -4.441406 C 7.933594 -4.175781 7.78125 -3.871094 7.566406 -3.523438 C 7.144531 -2.851562 6.445312 -1.984375 5.46875 -0.929688 C 5.273438 -0.726562 5.128906 -0.566406 5.03125 -0.457031 C 4.992188 -0.40625 4.960938 -0.371094 4.941406 -0.34375 C 4.941406 -0.339844 4.9375 -0.335938 4.9375 -0.335938 C 4.9375 -0.335938 4.9375 -0.339844 4.941406 -0.34375 C 4.957031 -0.375 4.972656 -0.410156 4.984375 -0.453125 C 4.980469 -0.433594 4.976562 -0.417969 4.972656 -0.410156 C 4.976562 -0.414062 4.976562 -0.425781 4.976562 -0.441406 C 4.976562 -0.550781 4.9375 -0.648438 4.863281 -0.730469 C 4.824219 -0.777344 4.78125 -0.808594 4.738281 -0.824219 C 4.742188 -0.820312 4.757812 -0.820312 4.78125 -0.816406 C 4.828125 -0.8125 4.882812 -0.808594 4.953125 -0.808594 C 5.234375 -0.808594 5.496094 -0.867188 5.738281 -0.980469 C 6.023438 -1.117188 6.304688 -1.289062 6.582031 -1.5 C 6.867188 -1.71875 7.144531 -1.957031 7.402344 -2.214844 C 7.671875 -2.484375 7.914062 -2.742188 8.125 -2.988281 C 8.339844 -3.234375 8.519531 -3.449219 8.664062 -3.632812 C 8.824219 -3.828125 8.933594 -3.960938 8.992188 -4.03125 L 9.359375 -4.4375 L 10.445312 -3.558594 L 10.035156 -3.105469 C 9.984375 -3.050781 9.886719 -2.929688 9.738281 -2.742188 C 9.574219 -2.535156 9.375 -2.300781 9.136719 -2.03125 C 8.898438 -1.765625 8.628906 -1.484375 8.328125 -1.191406 C 8.019531 -0.882812 7.691406 -0.601562 7.347656 -0.347656 C 6.488281 0.28125 5.691406 0.59375 4.957031 0.59375 C 4.230469 0.59375 3.707031 0.382812 3.382812 -0.0351562 C 3.234375 -0.21875 3.160156 -0.4375 3.160156 -0.683594 C 3.160156 -0.839844 3.183594 -1.011719 3.222656 -1.199219 C 3.269531 -1.398438 3.367188 -1.636719 3.519531 -1.914062 C 3.824219 -2.4375 4.25 -3.007812 4.792969 -3.617188 C 5.304688 -4.1875 5.636719 -4.570312 5.792969 -4.765625 C 5.941406 -4.957031 6.058594 -5.117188 6.144531 -5.25 C 6.214844 -5.363281 6.265625 -5.457031 6.296875 -5.539062 C 6.308594 -5.566406 6.316406 -5.589844 6.320312 -5.609375 C 6.324219 -5.613281 6.324219 -5.617188 6.324219 -5.617188 C 6.324219 -5.613281 6.324219 -5.609375 6.324219 -5.605469 C 6.324219 -5.578125 6.328125 -5.546875 6.34375 -5.511719 C 6.367188 -5.460938 6.402344 -5.417969 6.445312 -5.386719 C 6.46875 -5.367188 6.496094 -5.355469 6.515625 -5.347656 C 6.507812 -5.351562 6.492188 -5.351562 6.464844 -5.351562 C 6.394531 -5.351562 6.300781 -5.324219 6.175781 -5.273438 C 6.011719 -5.203125 5.824219 -5.097656 5.613281 -4.949219 C 5.152344 -4.632812 4.589844 -4.152344 3.933594 -3.503906 C 3.257812 -2.847656 2.484375 -1.980469 1.605469 -0.902344 L 1.160156 -1.265625 L 1.617188 -0.917969 L 0.566406 0.457031 Z M 0.429688 -0.734375 L 0.324219 -0.171875 L -0.132812 -0.519531 L 0.707031 -1.621094 L 0.710938 -1.628906 C 1.617188 -2.742188 2.421875 -3.640625 3.125 -4.324219 C 3.832031 -5.019531 4.445312 -5.542969 4.960938 -5.898438 C 5.550781 -6.300781 6.050781 -6.503906 6.464844 -6.503906 C 6.738281 -6.503906 6.960938 -6.4375 7.132812 -6.304688 C 7.25 -6.21875 7.335938 -6.109375 7.394531 -5.980469 C 7.445312 -5.863281 7.472656 -5.738281 7.472656 -5.605469 C 7.472656 -5.339844 7.351562 -5.015625 7.113281 -4.628906 C 7.003906 -4.464844 6.867188 -4.269531 6.691406 -4.050781 C 6.523438 -3.839844 6.175781 -3.441406 5.652344 -2.851562 C 5.160156 -2.300781 4.785156 -1.800781 4.527344 -1.355469 C 4.425781 -1.175781 4.367188 -1.039062 4.347656 -0.949219 C 4.324219 -0.84375 4.3125 -0.753906 4.3125 -0.683594 C 4.3125 -0.703125 4.304688 -0.71875 4.289062 -0.738281 C 4.324219 -0.691406 4.386719 -0.652344 4.46875 -0.625 C 4.589844 -0.578125 4.753906 -0.558594 4.957031 -0.558594 C 5.441406 -0.558594 6.011719 -0.792969 6.664062 -1.269531 C 6.964844 -1.492188 7.25 -1.738281 7.519531 -2.007812 C 7.804688 -2.285156 8.054688 -2.550781 8.277344 -2.800781 C 8.5 -3.046875 8.6875 -3.265625 8.835938 -3.453125 C 9 -3.664062 9.117188 -3.804688 9.183594 -3.878906 L 9.609375 -3.492188 L 9.246094 -3.046875 L 9.058594 -3.199219 L 9.421875 -3.644531 L 9.847656 -3.261719 C 9.800781 -3.210938 9.707031 -3.09375 9.566406 -2.917969 C 9.410156 -2.722656 9.21875 -2.492188 8.992188 -2.230469 C 8.761719 -1.96875 8.503906 -1.691406 8.214844 -1.402344 C 7.917969 -1.105469 7.605469 -0.832031 7.277344 -0.582031 C 6.9375 -0.328125 6.589844 -0.113281 6.234375 0.0546875 C 5.835938 0.246094 5.40625 0.339844 4.953125 0.339844 C 4.699219 0.339844 4.496094 0.3125 4.335938 0.253906 C 4.203125 0.203125 4.09375 0.128906 4.007812 0.03125 C 3.886719 -0.101562 3.824219 -0.257812 3.824219 -0.441406 C 3.824219 -0.523438 3.839844 -0.625 3.871094 -0.742188 C 3.894531 -0.828125 3.941406 -0.921875 4.011719 -1.019531 C 4.046875 -1.070312 4.097656 -1.132812 4.160156 -1.203125 C 4.269531 -1.332031 4.425781 -1.5 4.625 -1.710938 C 5.554688 -2.714844 6.207031 -3.519531 6.585938 -4.128906 C 6.757812 -4.402344 6.875 -4.636719 6.945312 -4.828125 C 7.003906 -4.996094 7.035156 -5.15625 7.035156 -5.3125 C 7.039062 -5.367188 7.015625 -5.417969 6.976562 -5.457031 C 6.949219 -5.484375 6.902344 -5.511719 6.839844 -5.539062 C 6.773438 -5.5625 6.683594 -5.578125 6.570312 -5.578125 C 6.4375 -5.578125 6.246094 -5.542969 6.003906 -5.46875 C 5.910156 -5.441406 5.773438 -5.371094 5.597656 -5.253906 C 5.390625 -5.117188 5.144531 -4.933594 4.859375 -4.695312 C 4.246094 -4.179688 3.191406 -3.105469 1.699219 -1.472656 L 1.113281 -0.828125 L 0.570312 -2.023438 L 2.648438 -4.914062 C 2.777344 -5.09375 2.855469 -5.234375 2.890625 -5.328125 C 2.929688 -5.441406 2.949219 -5.53125 2.953125 -5.597656 C 2.953125 -5.613281 2.953125 -5.621094 2.949219 -5.625 C 2.953125 -5.617188 2.957031 -5.605469 2.964844 -5.59375 C 2.972656 -5.582031 2.984375 -5.566406 2.996094 -5.558594 C 3 -5.554688 3.003906 -5.550781 3.007812 -5.550781 C 3.007812 -5.550781 3.003906 -5.550781 3.003906 -5.554688 C 2.960938 -5.570312 2.894531 -5.578125 2.800781 -5.578125 C 2.722656 -5.578125 2.609375 -5.527344 2.464844 -5.429688 C 2.257812 -5.292969 2.027344 -5.078125 1.761719 -4.785156 C 1.535156 -4.535156 1.316406 -4.273438 1.105469 -4 C 0.878906 -3.703125 0.667969 -3.453125 0.484375 -3.253906 L 0.46875 -3.238281 C 0.550781 -3.320312 0.597656 -3.417969 0.617188 -3.527344 C 0.632812 -3.621094 0.625 -3.710938 0.597656 -3.796875 C 0.574219 -3.855469 0.542969 -3.90625 0.511719 -3.941406 C 0.464844 -3.988281 0.402344 -4.019531 0.328125 -4.039062 C 0.214844 -4.070312 0.101562 -4.0625 -0.00390625 -4.007812 L 0.25 -3.492188 L -0.195312 -3.855469 L 0.378906 -4.5625 C 0.832031 -5.128906 1.203125 -5.554688 1.492188 -5.84375 C 1.65625 -6.003906 1.796875 -6.125 1.917969 -6.210938 C 2.113281 -6.351562 2.300781 -6.421875 2.480469 -6.421875 C 2.601562 -6.421875 2.714844 -6.398438 2.816406 -6.347656 C 2.945312 -6.289062 3.046875 -6.199219 3.125 -6.082031 C 3.226562 -5.917969 3.265625 -5.714844 3.238281 -5.484375 C 3.226562 -5.390625 3.195312 -5.289062 3.136719 -5.175781 C 3.101562 -5.105469 3.054688 -5.023438 2.996094 -4.929688 C 2.890625 -4.757812 2.734375 -4.53125 2.535156 -4.25 L -0.578125 0.203125 L -1.050781 -0.125 L -1.191406 -0.683594 C -0.90625 -0.753906 -0.578125 -0.789062 -0.214844 -0.789062 C 0.015625 -0.789062 0.230469 -0.773438 0.429688 -0.734375 Z M 0.429688 -0.734375 "/></g></g></g><g fill="#ebe1db" fill-opacity="1"><g transform="translate(28.765007, 16.281008)"><g><path d="M 4.058594 -5.378906 C 4.058594 -5.386719 4.058594 -5.394531 4.058594 -5.402344 C 4.058594 -5.398438 4.058594 -5.398438 4.0625 -5.394531 C 4.070312 -5.371094 4.085938 -5.351562 4.105469 -5.339844 C 4.109375 -5.332031 4.117188 -5.328125 4.121094 -5.328125 C 4.117188 -5.328125 4.113281 -5.328125 4.109375 -5.332031 C 4.078125 -5.339844 4.035156 -5.34375 3.980469 -5.34375 C 3.679688 -5.34375 3.300781 -5.160156 2.847656 -4.792969 C 2.320312 -4.371094 1.726562 -3.726562 1.066406 -2.859375 C 0.578125 -2.207031 0.332031 -1.640625 0.332031 -1.160156 C 0.332031 -1.09375 0.339844 -1.042969 0.351562 -1.003906 C 0.359375 -0.988281 0.363281 -0.976562 0.371094 -0.972656 C 0.507812 -0.84375 0.695312 -0.78125 0.9375 -0.78125 C 1.261719 -0.78125 1.613281 -0.851562 1.988281 -0.988281 C 2.386719 -1.136719 2.757812 -1.320312 3.097656 -1.542969 C 3.449219 -1.769531 3.765625 -2.015625 4.054688 -2.285156 C 4.351562 -2.5625 4.609375 -2.824219 4.824219 -3.0625 C 5.039062 -3.304688 5.207031 -3.507812 5.328125 -3.671875 C 5.464844 -3.859375 5.546875 -3.96875 5.578125 -4.003906 L 5.929688 -4.445312 L 7.023438 -3.601562 L 6.441406 -2.824219 C 5.246094 -1.253906 3.898438 -0.199219 2.40625 0.34375 C 1.875 0.535156 1.367188 0.628906 0.890625 0.628906 C 0.410156 0.628906 0.0195312 0.574219 -0.273438 0.46875 C -0.582031 0.359375 -0.839844 0.207031 -1.054688 0.0078125 L -1.0625 0.00390625 L -1.066406 -0.00390625 C -1.480469 -0.410156 -1.6875 -0.910156 -1.6875 -1.507812 C -1.6875 -2.503906 -1.273438 -3.5 -0.441406 -4.492188 C 0.195312 -5.25 0.949219 -5.835938 1.824219 -6.242188 C 2.550781 -6.578125 3.265625 -6.742188 3.960938 -6.726562 C 4.328125 -6.714844 4.632812 -6.640625 4.882812 -6.507812 C 5.175781 -6.351562 5.382812 -6.125 5.507812 -5.824219 C 5.625 -5.53125 5.652344 -5.242188 5.582031 -4.960938 C 5.519531 -4.695312 5.371094 -4.449219 5.144531 -4.222656 L 4.742188 -4.632812 L 5.15625 -4.234375 C 4.84375 -3.914062 4.515625 -3.753906 4.167969 -3.753906 C 3.816406 -3.753906 3.535156 -3.839844 3.320312 -4.011719 C 3.191406 -4.113281 3.09375 -4.242188 3.023438 -4.394531 C 2.964844 -4.527344 2.933594 -4.675781 2.929688 -4.839844 C 2.921875 -5.015625 2.953125 -5.175781 3.023438 -5.332031 C 3.09375 -5.480469 3.195312 -5.609375 3.332031 -5.71875 C 3.554688 -5.90625 3.792969 -6.011719 4.042969 -6.03125 L 4.050781 -6.035156 L 4.058594 -6.035156 C 4.347656 -6.050781 4.621094 -6 4.875 -5.882812 L 4.632812 -5.363281 L 4.058594 -5.363281 L 4.058594 -5.398438 L 4.632812 -5.398438 Z M 5.210938 -5.40625 L 5.210938 -4.460938 L 4.390625 -4.839844 C 4.3125 -4.878906 4.226562 -4.894531 4.132812 -4.886719 L 4.09375 -5.460938 L 4.148438 -4.886719 C 4.144531 -4.886719 4.140625 -4.886719 4.136719 -4.882812 C 4.117188 -4.875 4.089844 -4.855469 4.0625 -4.832031 C 4.058594 -4.832031 4.058594 -4.828125 4.054688 -4.828125 C 4.054688 -4.828125 4.058594 -4.828125 4.058594 -4.828125 C 4.0625 -4.835938 4.066406 -4.839844 4.066406 -4.847656 C 4.074219 -4.859375 4.078125 -4.871094 4.078125 -4.878906 C 4.078125 -4.867188 4.078125 -4.859375 4.078125 -4.851562 C 4.078125 -4.855469 4.078125 -4.855469 4.078125 -4.859375 C 4.066406 -4.878906 4.054688 -4.894531 4.035156 -4.910156 C 4.03125 -4.914062 4.023438 -4.917969 4.019531 -4.921875 C 4.023438 -4.917969 4.027344 -4.917969 4.035156 -4.917969 C 4.066406 -4.90625 4.109375 -4.902344 4.167969 -4.902344 C 4.164062 -4.902344 4.160156 -4.902344 4.15625 -4.902344 C 4.164062 -4.90625 4.171875 -4.90625 4.179688 -4.914062 C 4.222656 -4.933594 4.273438 -4.976562 4.328125 -5.035156 L 4.335938 -5.039062 L 4.339844 -5.042969 C 4.410156 -5.113281 4.453125 -5.175781 4.464844 -5.230469 C 4.476562 -5.273438 4.46875 -5.324219 4.445312 -5.382812 C 4.394531 -5.503906 4.226562 -5.566406 3.941406 -5.578125 C 3.417969 -5.585938 2.875 -5.460938 2.308594 -5.199219 C 1.589844 -4.863281 0.96875 -4.382812 0.441406 -3.753906 C -0.210938 -2.972656 -0.539062 -2.226562 -0.539062 -1.507812 C -0.539062 -1.234375 -0.445312 -1.003906 -0.261719 -0.824219 L -0.664062 -0.414062 L -0.273438 -0.835938 C -0.175781 -0.746094 -0.046875 -0.671875 0.113281 -0.613281 C 0.285156 -0.550781 0.542969 -0.519531 0.890625 -0.519531 C 1.234375 -0.519531 1.609375 -0.59375 2.011719 -0.738281 C 3.296875 -1.203125 4.464844 -2.128906 5.519531 -3.515625 L 5.765625 -3.839844 L 6.222656 -3.492188 L 5.871094 -3.039062 L 5.675781 -3.191406 L 6.027344 -3.644531 L 6.476562 -3.289062 C 6.457031 -3.261719 6.382812 -3.164062 6.257812 -2.992188 C 6.113281 -2.796875 5.921875 -2.566406 5.683594 -2.296875 C 5.441406 -2.03125 5.160156 -1.746094 4.835938 -1.441406 C 4.5 -1.128906 4.132812 -0.839844 3.726562 -0.578125 C 3.3125 -0.308594 2.867188 -0.0859375 2.386719 0.0898438 C 1.882812 0.277344 1.398438 0.367188 0.9375 0.367188 C 0.394531 0.367188 -0.0585938 0.199219 -0.425781 -0.140625 C -0.6875 -0.394531 -0.816406 -0.730469 -0.816406 -1.160156 C -0.816406 -1.898438 -0.492188 -2.695312 0.152344 -3.554688 C 0.871094 -4.496094 1.527344 -5.207031 2.125 -5.6875 C 2.792969 -6.226562 3.410156 -6.492188 3.980469 -6.492188 C 4.324219 -6.492188 4.605469 -6.410156 4.820312 -6.238281 C 4.949219 -6.136719 5.046875 -6.007812 5.113281 -5.859375 C 5.171875 -5.726562 5.203125 -5.578125 5.207031 -5.417969 Z M 5.210938 -5.40625 "/></g></g></g><g fill="#ebe1db" fill-opacity="1"><g transform="translate(34.736067, 16.281008)"><g><path d="M 5.140625 -7.691406 C 5.003906 -7.570312 4.851562 -7.472656 4.683594 -7.402344 C 4.507812 -7.328125 4.308594 -7.292969 4.09375 -7.292969 C 3.792969 -7.292969 3.535156 -7.40625 3.324219 -7.628906 C 3.117188 -7.84375 3.015625 -8.09375 3.015625 -8.378906 C 3.015625 -8.597656 3.058594 -8.796875 3.144531 -8.972656 C 3.222656 -9.144531 3.332031 -9.292969 3.46875 -9.421875 L 3.863281 -9 L 3.449219 -9.398438 C 3.734375 -9.695312 4.0625 -9.84375 4.433594 -9.84375 C 4.808594 -9.84375 5.105469 -9.722656 5.320312 -9.484375 C 5.515625 -9.265625 5.613281 -9.015625 5.613281 -8.738281 C 5.613281 -8.515625 5.566406 -8.3125 5.476562 -8.132812 C 5.394531 -7.964844 5.28125 -7.816406 5.140625 -7.691406 Z M 4.371094 -8.546875 C 4.402344 -8.574219 4.429688 -8.609375 4.449219 -8.644531 C 4.457031 -8.667969 4.464844 -8.695312 4.464844 -8.738281 C 4.464844 -8.730469 4.464844 -8.71875 4.46875 -8.710938 C 4.46875 -8.710938 4.46875 -8.707031 4.46875 -8.707031 C 4.46875 -8.710938 4.464844 -8.714844 4.460938 -8.71875 C 4.476562 -8.703125 4.492188 -8.691406 4.503906 -8.6875 C 4.492188 -8.691406 4.46875 -8.695312 4.433594 -8.695312 C 4.386719 -8.695312 4.335938 -8.664062 4.273438 -8.597656 L 4.253906 -8.578125 C 4.222656 -8.550781 4.199219 -8.519531 4.183594 -8.484375 C 4.171875 -8.460938 4.167969 -8.425781 4.167969 -8.378906 C 4.167969 -8.390625 4.164062 -8.402344 4.160156 -8.414062 C 4.15625 -8.417969 4.15625 -8.421875 4.15625 -8.421875 C 4.15625 -8.421875 4.15625 -8.421875 4.160156 -8.417969 C 4.15625 -8.421875 4.148438 -8.425781 4.136719 -8.433594 C 4.121094 -8.4375 4.109375 -8.441406 4.09375 -8.441406 C 4.15625 -8.441406 4.207031 -8.449219 4.242188 -8.464844 C 4.289062 -8.484375 4.332031 -8.511719 4.371094 -8.546875 Z M -0.378906 -0.515625 C -0.378906 -0.578125 -0.394531 -0.640625 -0.429688 -0.695312 C -0.464844 -0.75 -0.503906 -0.785156 -0.546875 -0.8125 C -0.558594 -0.816406 -0.5625 -0.820312 -0.570312 -0.820312 C -0.566406 -0.820312 -0.5625 -0.820312 -0.554688 -0.816406 C -0.519531 -0.8125 -0.476562 -0.808594 -0.421875 -0.808594 C -0.160156 -0.808594 0.0859375 -0.867188 0.316406 -0.988281 C 0.601562 -1.132812 0.890625 -1.316406 1.183594 -1.539062 C 1.488281 -1.769531 1.78125 -2.019531 2.0625 -2.292969 L 2.863281 -3.089844 L 3.269531 -2.683594 L 2.851562 -3.082031 C 3.085938 -3.324219 3.277344 -3.535156 3.425781 -3.710938 C 3.589844 -3.902344 3.691406 -4.019531 3.734375 -4.0625 L 4.121094 -4.449219 L 5.15625 -3.515625 L 4.726562 -3.085938 C 4.675781 -3.039062 4.578125 -2.921875 4.421875 -2.742188 C 4.25 -2.539062 4.039062 -2.304688 3.785156 -2.035156 C 3.53125 -1.765625 3.25 -1.484375 2.9375 -1.1875 C 2.613281 -0.882812 2.269531 -0.605469 1.914062 -0.347656 C 1.042969 0.277344 0.253906 0.59375 -0.449219 0.59375 C -0.925781 0.59375 -1.324219 0.496094 -1.636719 0.308594 C -1.8125 0.199219 -1.953125 0.0742188 -2.054688 -0.0664062 C -2.179688 -0.242188 -2.246094 -0.4375 -2.246094 -0.648438 C -2.246094 -0.871094 -2.222656 -1.074219 -2.171875 -1.257812 C -2.125 -1.433594 -2.046875 -1.636719 -1.933594 -1.863281 C -1.828125 -2.078125 -1.683594 -2.320312 -1.5 -2.597656 C -1.320312 -2.867188 -1.09375 -3.183594 -0.8125 -3.554688 C -0.535156 -3.917969 -0.199219 -4.339844 0.195312 -4.820312 L 1.8125 -6.734375 L 2.160156 -6.648438 C 2.175781 -6.644531 2.195312 -6.644531 2.21875 -6.644531 C 2.28125 -6.640625 2.363281 -6.636719 2.460938 -6.636719 L 2.882812 -6.636719 C 3.015625 -6.636719 3.117188 -6.640625 3.1875 -6.652344 L 4.640625 -6.832031 L 3.699219 -5.710938 C 1.726562 -3.351562 0.613281 -2.015625 0.371094 -1.695312 C 0.132812 -1.378906 -0.0429688 -1.136719 -0.15625 -0.964844 C -0.242188 -0.832031 -0.304688 -0.71875 -0.34375 -0.628906 C -0.367188 -0.570312 -0.378906 -0.535156 -0.378906 -0.515625 Z M -1.527344 -0.515625 C -1.527344 -0.820312 -1.390625 -1.175781 -1.121094 -1.585938 C -0.992188 -1.785156 -0.800781 -2.054688 -0.542969 -2.390625 C -0.289062 -2.726562 0.832031 -4.078125 2.820312 -6.449219 L 3.261719 -6.082031 L 3.332031 -5.507812 C 3.210938 -5.496094 3.0625 -5.488281 2.882812 -5.488281 L 2.460938 -5.488281 C 2.191406 -5.488281 2 -5.503906 1.882812 -5.53125 L 2.019531 -6.089844 L 2.460938 -5.71875 L 1.082031 -4.089844 C 0.695312 -3.621094 0.371094 -3.210938 0.101562 -2.859375 C -0.160156 -2.507812 -0.375 -2.210938 -0.539062 -1.964844 C -0.699219 -1.726562 -0.820312 -1.519531 -0.90625 -1.351562 C -0.984375 -1.195312 -1.035156 -1.066406 -1.058594 -0.96875 C -1.082031 -0.878906 -1.09375 -0.769531 -1.09375 -0.648438 C -1.09375 -0.683594 -1.105469 -0.714844 -1.121094 -0.734375 C -1.109375 -0.722656 -1.082031 -0.703125 -1.039062 -0.675781 C -0.910156 -0.597656 -0.710938 -0.558594 -0.449219 -0.558594 C 0.0078125 -0.558594 0.574219 -0.800781 1.246094 -1.285156 C 1.5625 -1.507812 1.859375 -1.757812 2.148438 -2.027344 C 2.445312 -2.304688 2.710938 -2.570312 2.949219 -2.824219 C 3.1875 -3.078125 3.386719 -3.296875 3.542969 -3.484375 C 3.71875 -3.691406 3.84375 -3.828125 3.914062 -3.898438 L 4.320312 -3.492188 L 3.933594 -3.066406 L 3.753906 -3.226562 L 4.140625 -3.65625 L 4.546875 -3.25 C 4.527344 -3.230469 4.445312 -3.132812 4.300781 -2.964844 C 4.136719 -2.773438 3.933594 -2.546875 3.683594 -2.289062 L 3.679688 -2.285156 L 2.859375 -1.460938 C 2.542969 -1.160156 2.214844 -0.878906 1.878906 -0.625 C 1.53125 -0.359375 1.1875 -0.140625 0.84375 0.0351562 C 0.445312 0.238281 0.0234375 0.339844 -0.421875 0.339844 C -0.695312 0.339844 -0.917969 0.296875 -1.089844 0.203125 C -1.226562 0.132812 -1.332031 0.0351562 -1.40625 -0.0898438 C -1.488281 -0.214844 -1.527344 -0.359375 -1.527344 -0.515625 Z M -1.527344 -0.515625 "/></g></g></g><g fill="#ebe1db" fill-opacity="1"><g transform="translate(38.803571, 16.281008)"><g><path d="M 3.78125 -0.292969 C 3.363281 -0.0273438 2.914062 0.191406 2.433594 0.363281 C 1.929688 0.539062 1.449219 0.628906 0.988281 0.628906 C 0.519531 0.628906 0.148438 0.574219 -0.125 0.46875 C -0.414062 0.355469 -0.652344 0.195312 -0.847656 -0.015625 C -1.226562 -0.429688 -1.417969 -0.9375 -1.417969 -1.539062 C -1.414062 -2.078125 -1.253906 -2.679688 -0.933594 -3.355469 C -0.652344 -3.953125 -0.234375 -4.496094 0.324219 -4.980469 C 0.847656 -5.441406 1.316406 -5.789062 1.726562 -6.023438 C 2.546875 -6.492188 3.324219 -6.726562 4.070312 -6.726562 C 4.492188 -6.726562 4.832031 -6.652344 5.085938 -6.496094 C 5.253906 -6.398438 5.382812 -6.273438 5.476562 -6.117188 C 5.570312 -5.964844 5.625 -5.792969 5.636719 -5.601562 C 5.671875 -5.09375 5.425781 -4.601562 4.898438 -4.128906 C 4.464844 -3.742188 3.824219 -3.347656 2.976562 -2.945312 C 2.367188 -2.660156 1.605469 -2.367188 0.691406 -2.066406 L 0.511719 -2.613281 L 1 -2.3125 C 0.84375 -2.054688 0.726562 -1.828125 0.652344 -1.628906 C 0.589844 -1.460938 0.558594 -1.320312 0.558594 -1.207031 C 0.558594 -1.09375 0.570312 -1.003906 0.59375 -0.941406 C 0.601562 -0.910156 0.613281 -0.890625 0.625 -0.882812 C 0.710938 -0.816406 0.863281 -0.78125 1.089844 -0.78125 C 1.386719 -0.78125 1.710938 -0.847656 2.070312 -0.980469 C 2.449219 -1.121094 2.808594 -1.296875 3.140625 -1.515625 C 3.480469 -1.734375 3.785156 -1.976562 4.0625 -2.234375 C 4.347656 -2.503906 4.601562 -2.761719 4.820312 -3.007812 C 5.042969 -3.253906 5.222656 -3.464844 5.363281 -3.644531 C 5.53125 -3.859375 5.652344 -4.003906 5.734375 -4.074219 L 6.097656 -4.398438 L 7.207031 -3.503906 L 6.675781 -3.054688 C 6.628906 -3.015625 6.539062 -2.910156 6.402344 -2.734375 C 6.234375 -2.519531 6.023438 -2.273438 5.769531 -2 C 5.515625 -1.730469 5.226562 -1.445312 4.902344 -1.148438 C 4.5625 -0.835938 4.1875 -0.550781 3.78125 -0.292969 Z M 3.160156 -1.261719 C 3.515625 -1.484375 3.835938 -1.730469 4.125 -1.996094 C 4.429688 -2.273438 4.695312 -2.535156 4.925781 -2.785156 C 5.160156 -3.035156 5.347656 -3.253906 5.496094 -3.441406 C 5.679688 -3.675781 5.824219 -3.839844 5.933594 -3.933594 L 6.304688 -3.492188 L 5.941406 -3.046875 L 5.753906 -3.199219 L 6.117188 -3.644531 L 6.496094 -3.214844 C 6.46875 -3.191406 6.394531 -3.097656 6.269531 -2.9375 C 6.113281 -2.738281 5.917969 -2.507812 5.675781 -2.238281 C 5.4375 -1.96875 5.160156 -1.6875 4.847656 -1.394531 C 4.523438 -1.089844 4.164062 -0.808594 3.765625 -0.550781 C 3.363281 -0.289062 2.929688 -0.0703125 2.464844 0.0976562 C 1.980469 0.277344 1.523438 0.367188 1.089844 0.367188 C 0.59375 0.367188 0.199219 0.25 -0.0976562 0.0117188 C -0.425781 -0.257812 -0.59375 -0.664062 -0.59375 -1.207031 C -0.59375 -1.679688 -0.386719 -2.246094 0.0234375 -2.914062 L 0.132812 -3.09375 L 0.332031 -3.160156 C 1.203125 -3.445312 1.917969 -3.722656 2.484375 -3.988281 C 3.234375 -4.339844 3.78125 -4.671875 4.128906 -4.984375 C 4.273438 -5.113281 4.378906 -5.234375 4.4375 -5.34375 C 4.476562 -5.414062 4.496094 -5.472656 4.492188 -5.515625 C 4.492188 -5.523438 4.492188 -5.527344 4.488281 -5.53125 C 4.492188 -5.527344 4.492188 -5.523438 4.496094 -5.519531 C 4.5 -5.515625 4.503906 -5.507812 4.503906 -5.507812 L 4.507812 -5.503906 C 4.503906 -5.507812 4.503906 -5.507812 4.5 -5.507812 C 4.472656 -5.527344 4.429688 -5.539062 4.371094 -5.550781 C 4.289062 -5.570312 4.1875 -5.578125 4.070312 -5.578125 C 3.53125 -5.578125 2.9375 -5.394531 2.296875 -5.023438 C 1.953125 -4.828125 1.546875 -4.523438 1.078125 -4.117188 C 0.644531 -3.734375 0.320312 -3.316406 0.105469 -2.859375 C -0.351562 -1.902344 -0.386719 -1.214844 0 -0.792969 C 0.0742188 -0.714844 0.171875 -0.652344 0.292969 -0.601562 C 0.433594 -0.546875 0.664062 -0.519531 0.988281 -0.519531 C 1.316406 -0.519531 1.671875 -0.585938 2.050781 -0.722656 C 2.449219 -0.863281 2.820312 -1.042969 3.160156 -1.261719 Z M 0.527344 -3.46875 C 1.402344 -3.777344 2.117188 -4.082031 2.675781 -4.382812 C 3.191406 -4.664062 3.554688 -4.933594 3.769531 -5.191406 C 3.855469 -5.292969 3.898438 -5.375 3.898438 -5.433594 C 3.898438 -5.460938 3.898438 -5.476562 3.894531 -5.484375 C 3.902344 -5.464844 3.914062 -5.441406 3.933594 -5.417969 C 3.960938 -5.394531 3.984375 -5.375 4.015625 -5.363281 C 4.019531 -5.363281 4.023438 -5.359375 4.027344 -5.359375 C 4.023438 -5.359375 4.015625 -5.363281 4.003906 -5.363281 C 3.851562 -5.363281 3.652344 -5.277344 3.40625 -5.105469 C 3.101562 -4.890625 2.757812 -4.5625 2.375 -4.117188 C 1.820312 -3.464844 1.425781 -2.964844 1.203125 -2.617188 L 0.71875 -2.929688 Z M 0.910156 -2.386719 L -0.675781 -1.828125 L 0.234375 -3.238281 C 0.488281 -3.632812 0.910156 -4.175781 1.503906 -4.863281 C 1.949219 -5.382812 2.363281 -5.777344 2.746094 -6.046875 C 3.191406 -6.355469 3.609375 -6.511719 4.003906 -6.511719 C 4.328125 -6.511719 4.585938 -6.40625 4.777344 -6.203125 C 4.957031 -6.007812 5.046875 -5.75 5.046875 -5.433594 C 5.046875 -5.097656 4.917969 -4.773438 4.65625 -4.457031 C 4.347656 -4.085938 3.871094 -3.722656 3.222656 -3.371094 C 2.613281 -3.042969 1.84375 -2.710938 0.910156 -2.386719 Z M 0.910156 -2.386719 "/></g></g></g><g fill="#ebe1db" fill-opacity="1"><g transform="translate(44.85544, 16.281008)"><g><path d="M 2.128906 -0.703125 C 2.128906 -0.695312 2.128906 -0.683594 2.128906 -0.675781 C 2.128906 -0.675781 2.128906 -0.675781 2.128906 -0.671875 C 2.128906 -0.675781 2.128906 -0.675781 2.128906 -0.679688 C 2.121094 -0.707031 2.105469 -0.734375 2.082031 -0.765625 C 2.046875 -0.800781 2.007812 -0.832031 1.964844 -0.847656 C 1.941406 -0.859375 1.921875 -0.863281 1.910156 -0.863281 C 2.054688 -0.863281 2.226562 -0.914062 2.429688 -1.015625 C 2.683594 -1.144531 2.945312 -1.308594 3.214844 -1.511719 C 3.496094 -1.71875 3.773438 -1.953125 4.042969 -2.207031 L 4.4375 -1.789062 L 4.03125 -2.195312 L 4.8125 -2.976562 C 5.039062 -3.210938 5.238281 -3.421875 5.40625 -3.613281 L 6.148438 -4.449219 L 7.261719 -3.503906 L 6.769531 -3.066406 C 6.671875 -2.976562 6.535156 -2.835938 6.355469 -2.636719 L 5.703125 -1.910156 L 5.699219 -1.902344 C 4.933594 -1.09375 4.214844 -0.484375 3.542969 -0.0703125 C 2.820312 0.371094 2.144531 0.59375 1.507812 0.59375 C 1.03125 0.59375 0.636719 0.464844 0.324219 0.210938 C 0.152344 0.0742188 0.0195312 -0.09375 -0.0664062 -0.289062 C -0.15625 -0.476562 -0.199219 -0.683594 -0.199219 -0.90625 C -0.199219 -1.234375 -0.0898438 -1.582031 0.125 -1.949219 C 0.3125 -2.265625 0.585938 -2.605469 0.941406 -2.96875 C 1.621094 -3.652344 2.625 -4.445312 3.953125 -5.335938 L 4.273438 -4.859375 L 4.179688 -4.292969 C 2.863281 -4.507812 1.941406 -4.734375 1.410156 -4.972656 L 1.644531 -5.496094 L 2.160156 -5.246094 C 1.738281 -4.375 1.097656 -3.496094 0.234375 -2.609375 C 0.128906 -2.5 0.0429688 -2.417969 -0.0234375 -2.355469 C -0.136719 -2.253906 -0.234375 -2.1875 -0.320312 -2.152344 C -0.332031 -2.148438 -0.339844 -2.144531 -0.34375 -2.140625 C -0.324219 -2.152344 -0.300781 -2.167969 -0.273438 -2.183594 C -0.339844 -2.136719 -0.414062 -2.101562 -0.492188 -2.082031 C -0.605469 -2.058594 -0.714844 -2.0625 -0.820312 -2.101562 C -0.960938 -2.152344 -1.066406 -2.242188 -1.140625 -2.375 C -1.175781 -2.445312 -1.203125 -2.523438 -1.214844 -2.613281 C -1.234375 -2.734375 -1.226562 -2.847656 -1.199219 -2.945312 C -1.175781 -3.035156 -1.132812 -3.121094 -1.070312 -3.199219 L -1.039062 -3.238281 C -0.765625 -3.546875 -0.507812 -3.847656 -0.273438 -4.136719 C 0.253906 -4.792969 0.640625 -5.375 0.882812 -5.875 L 1.402344 -5.621094 L 1.089844 -5.136719 C 0.738281 -5.363281 0.53125 -5.636719 0.46875 -5.953125 C 0.421875 -6.191406 0.425781 -6.417969 0.480469 -6.632812 C 0.527344 -6.835938 0.605469 -7.015625 0.714844 -7.179688 C 0.835938 -7.363281 0.976562 -7.503906 1.132812 -7.605469 C 1.316406 -7.726562 1.519531 -7.785156 1.734375 -7.785156 C 2.046875 -7.785156 2.300781 -7.714844 2.496094 -7.574219 C 2.625 -7.480469 2.722656 -7.359375 2.785156 -7.21875 C 2.84375 -7.089844 2.875 -6.949219 2.875 -6.796875 C 2.875 -6.558594 2.824219 -6.351562 2.71875 -6.167969 L 2.535156 -5.847656 L 2.507812 -5.816406 C 2.484375 -5.78125 2.46875 -5.742188 2.46875 -5.695312 C 2.46875 -5.777344 2.449219 -5.855469 2.410156 -5.925781 C 2.386719 -5.96875 2.359375 -6.007812 2.324219 -6.039062 C 2.3125 -6.050781 2.300781 -6.0625 2.289062 -6.066406 C 2.289062 -6.066406 2.292969 -6.066406 2.300781 -6.0625 C 2.378906 -6.027344 2.511719 -5.992188 2.699219 -5.953125 C 3.152344 -5.855469 3.476562 -5.792969 3.664062 -5.757812 C 4.054688 -5.683594 4.363281 -5.640625 4.582031 -5.628906 C 4.75 -5.625 4.894531 -5.589844 5.011719 -5.523438 C 5.121094 -5.46875 5.207031 -5.390625 5.269531 -5.289062 C 5.34375 -5.179688 5.378906 -5.054688 5.378906 -4.921875 C 5.378906 -4.742188 5.304688 -4.574219 5.152344 -4.410156 C 5.085938 -4.339844 4.992188 -4.253906 4.871094 -4.160156 C 4.691406 -4.011719 4.488281 -3.835938 4.265625 -3.625 C 4.042969 -3.414062 3.824219 -3.191406 3.613281 -2.957031 C 3.402344 -2.726562 3.199219 -2.488281 3.011719 -2.25 C 2.824219 -2.011719 2.664062 -1.785156 2.523438 -1.566406 C 2.378906 -1.34375 2.273438 -1.152344 2.207031 -0.988281 C 2.15625 -0.863281 2.128906 -0.769531 2.128906 -0.703125 Z M 0.980469 -0.703125 C 0.980469 -1.097656 1.171875 -1.589844 1.554688 -2.1875 C 1.714844 -2.4375 1.898438 -2.695312 2.109375 -2.960938 C 2.3125 -3.222656 2.53125 -3.480469 2.765625 -3.734375 C 2.996094 -3.984375 3.230469 -4.226562 3.476562 -4.457031 C 3.71875 -4.691406 3.945312 -4.890625 4.152344 -5.054688 C 4.230469 -5.117188 4.28125 -5.164062 4.3125 -5.195312 C 4.3125 -5.195312 4.3125 -5.195312 4.3125 -5.199219 C 4.3125 -5.199219 4.3125 -5.195312 4.3125 -5.195312 C 4.308594 -5.191406 4.300781 -5.183594 4.296875 -5.171875 C 4.253906 -5.101562 4.230469 -5.015625 4.230469 -4.921875 C 4.230469 -4.828125 4.253906 -4.742188 4.308594 -4.664062 C 4.351562 -4.597656 4.40625 -4.546875 4.46875 -4.511719 C 4.5 -4.496094 4.527344 -4.484375 4.550781 -4.480469 C 4.546875 -4.480469 4.539062 -4.480469 4.523438 -4.480469 C 4.253906 -4.496094 3.894531 -4.542969 3.449219 -4.625 C 3.253906 -4.664062 2.925781 -4.730469 2.464844 -4.824219 C 2.195312 -4.882812 1.984375 -4.945312 1.832031 -5.011719 C 1.71875 -5.0625 1.625 -5.121094 1.550781 -5.191406 C 1.398438 -5.332031 1.320312 -5.5 1.320312 -5.695312 C 1.320312 -6.003906 1.414062 -6.28125 1.605469 -6.523438 L 2.054688 -6.167969 L 1.558594 -6.457031 L 1.71875 -6.730469 C 1.714844 -6.730469 1.714844 -6.730469 1.714844 -6.726562 C 1.71875 -6.730469 1.71875 -6.734375 1.71875 -6.738281 C 1.722656 -6.753906 1.722656 -6.773438 1.722656 -6.796875 C 1.722656 -6.785156 1.730469 -6.765625 1.742188 -6.742188 C 1.757812 -6.699219 1.785156 -6.667969 1.820312 -6.644531 C 1.828125 -6.636719 1.839844 -6.632812 1.847656 -6.628906 C 1.847656 -6.625 1.851562 -6.625 1.851562 -6.625 C 1.847656 -6.625 1.847656 -6.625 1.84375 -6.628906 C 1.820312 -6.632812 1.78125 -6.636719 1.734375 -6.636719 C 1.746094 -6.636719 1.753906 -6.636719 1.757812 -6.640625 C 1.734375 -6.625 1.707031 -6.59375 1.671875 -6.542969 C 1.636719 -6.492188 1.613281 -6.429688 1.597656 -6.359375 C 1.582031 -6.308594 1.582031 -6.246094 1.597656 -6.171875 C 1.59375 -6.183594 1.589844 -6.195312 1.585938 -6.207031 C 1.585938 -6.207031 1.585938 -6.210938 1.582031 -6.210938 C 1.585938 -6.207031 1.585938 -6.207031 1.589844 -6.203125 C 1.613281 -6.175781 1.652344 -6.144531 1.710938 -6.105469 L 2.144531 -5.832031 L 1.917969 -5.371094 C 1.636719 -4.792969 1.203125 -4.140625 0.617188 -3.410156 C 0.371094 -3.109375 0.105469 -2.796875 -0.179688 -2.472656 L -0.609375 -2.855469 L -0.152344 -2.511719 C -0.125 -2.542969 -0.105469 -2.582031 -0.09375 -2.628906 C -0.078125 -2.6875 -0.0703125 -2.738281 -0.078125 -2.777344 C -0.0859375 -2.824219 -0.101562 -2.875 -0.128906 -2.925781 C -0.199219 -3.050781 -0.300781 -3.136719 -0.433594 -3.183594 C -0.539062 -3.222656 -0.644531 -3.226562 -0.753906 -3.203125 C -0.832031 -3.183594 -0.902344 -3.152344 -0.964844 -3.105469 C -0.910156 -3.144531 -0.839844 -3.183594 -0.746094 -3.21875 C -0.785156 -3.203125 -0.816406 -3.1875 -0.835938 -3.171875 C -0.828125 -3.175781 -0.816406 -3.1875 -0.800781 -3.203125 C -0.75 -3.25 -0.679688 -3.320312 -0.59375 -3.410156 C 0.183594 -4.210938 0.757812 -4.988281 1.125 -5.746094 L 1.367188 -6.246094 L 1.878906 -6.023438 C 2.316406 -5.824219 3.148438 -5.628906 4.367188 -5.425781 L 5.800781 -5.191406 L 4.59375 -4.382812 C 3.328125 -3.53125 2.382812 -2.792969 1.761719 -2.160156 C 1.46875 -1.863281 1.253906 -1.601562 1.117188 -1.363281 C 1.007812 -1.179688 0.953125 -1.027344 0.953125 -0.90625 C 0.953125 -0.851562 0.960938 -0.804688 0.976562 -0.769531 C 0.992188 -0.738281 1.015625 -0.707031 1.050781 -0.679688 C 1.148438 -0.597656 1.304688 -0.558594 1.507812 -0.558594 C 1.925781 -0.558594 2.40625 -0.722656 2.941406 -1.050781 C 3.527344 -1.410156 4.167969 -1.957031 4.863281 -2.695312 L 5.28125 -2.300781 L 4.851562 -2.683594 L 5.496094 -3.398438 C 5.703125 -3.632812 5.871094 -3.804688 6.003906 -3.921875 L 6.386719 -3.492188 L 6.011719 -3.054688 L 5.832031 -3.207031 L 6.207031 -3.644531 L 6.636719 -3.265625 L 6.269531 -2.855469 C 6.089844 -2.648438 5.875 -2.417969 5.625 -2.160156 L 4.835938 -1.375 L 4.828125 -1.367188 C 4.527344 -1.082031 4.21875 -0.824219 3.90625 -0.589844 C 3.582031 -0.347656 3.261719 -0.148438 2.949219 0.0117188 C 2.582031 0.195312 2.234375 0.289062 1.910156 0.289062 C 1.777344 0.289062 1.65625 0.265625 1.542969 0.222656 C 1.410156 0.167969 1.296875 0.0898438 1.203125 -0.0195312 C 1.054688 -0.195312 0.980469 -0.425781 0.980469 -0.703125 Z M 0.980469 -0.703125 "/></g></g></g><g fill="#ebe1db" fill-opacity="1"><g transform="translate(50.997099, 16.281008)"><g><path d="M 1.582031 0.996094 C 4.027344 -0.238281 6.125 -1.90625 7.875 -4.015625 L 8.246094 -4.460938 L 9.300781 -3.5625 L 8.9375 -3.128906 C 6.976562 -0.75 4.578125 1.105469 1.746094 2.441406 L 1.5 1.921875 L 1.941406 2.289062 L 0.335938 4.210938 L 0.332031 4.214844 C -1.066406 5.808594 -2.226562 6.816406 -3.144531 7.238281 C -3.746094 7.507812 -4.425781 7.644531 -5.191406 7.644531 C -5.464844 7.644531 -5.710938 7.59375 -5.921875 7.492188 C -6.15625 7.378906 -6.347656 7.214844 -6.488281 6.996094 C -6.605469 6.816406 -6.667969 6.617188 -6.671875 6.402344 C -6.671875 6.214844 -6.632812 6.019531 -6.542969 5.820312 C -6.410156 5.511719 -6.226562 5.230469 -5.996094 4.980469 C -5.78125 4.75 -5.5 4.507812 -5.15625 4.253906 C -4.820312 4.003906 -4.40625 3.742188 -3.914062 3.460938 C -2.921875 2.898438 -1.597656 2.265625 0.0625 1.5625 L 0.289062 2.09375 L -0.160156 1.730469 L 3.457031 -2.765625 L 3.90625 -2.40625 L 3.648438 -1.894531 L 3.578125 -1.929688 L 3.835938 -2.441406 L 4.265625 -2.0625 C 3.105469 -0.742188 2.042969 0.0859375 1.078125 0.425781 C 0.761719 0.535156 0.476562 0.59375 0.222656 0.59375 C -0.300781 0.59375 -0.714844 0.433594 -1.015625 0.121094 C -1.304688 -0.179688 -1.457031 -0.601562 -1.472656 -1.140625 L -1.472656 -1.160156 C -1.472656 -2.226562 -1.070312 -3.234375 -0.265625 -4.171875 C 1.132812 -5.875 2.675781 -6.726562 4.375 -6.726562 C 4.871094 -6.726562 5.277344 -6.636719 5.597656 -6.453125 C 5.925781 -6.265625 6.128906 -6.003906 6.207031 -5.660156 C 6.277344 -5.363281 6.238281 -5.035156 6.09375 -4.671875 L 5.558594 -4.886719 L 5.105469 -5.238281 L 6.183594 -6.628906 L 6.554688 -6.527344 C 6.679688 -6.492188 6.789062 -6.476562 6.878906 -6.476562 C 7.199219 -6.476562 7.417969 -6.484375 7.546875 -6.503906 L 8.976562 -6.722656 L 2.292969 1.863281 L 1.839844 1.507812 Z M 2.101562 2.023438 L 1.386719 1.15625 L 7.179688 -6.289062 L 7.632812 -5.9375 L 7.722656 -5.367188 C 7.535156 -5.339844 7.257812 -5.324219 6.878906 -5.324219 C 6.683594 -5.324219 6.472656 -5.355469 6.25 -5.417969 L 6.402344 -5.972656 L 6.855469 -5.621094 L 6.011719 -4.53125 L 5.027344 -5.101562 C 5.058594 -5.183594 5.082031 -5.253906 5.089844 -5.316406 C 5.09375 -5.351562 5.09375 -5.378906 5.089844 -5.398438 C 5.085938 -5.414062 5.0625 -5.433594 5.019531 -5.457031 C 4.882812 -5.535156 4.664062 -5.578125 4.375 -5.578125 C 3.039062 -5.578125 1.785156 -4.859375 0.605469 -3.425781 C -0.0117188 -2.699219 -0.324219 -1.945312 -0.324219 -1.160156 L -0.898438 -1.160156 L -0.324219 -1.175781 C -0.316406 -0.929688 -0.269531 -0.761719 -0.183594 -0.671875 C -0.109375 -0.59375 0.0273438 -0.558594 0.222656 -0.558594 C 0.34375 -0.558594 0.503906 -0.589844 0.699219 -0.660156 C 1.472656 -0.929688 2.375 -1.652344 3.402344 -2.824219 L 3.695312 -3.15625 L 4.800781 -2.601562 L 0.644531 2.566406 L 0.511719 2.621094 C -1.109375 3.308594 -2.394531 3.921875 -3.34375 4.460938 C -3.796875 4.71875 -4.171875 4.957031 -4.472656 5.179688 C -4.761719 5.390625 -4.988281 5.585938 -5.152344 5.761719 C -5.296875 5.917969 -5.40625 6.089844 -5.488281 6.277344 C -5.511719 6.324219 -5.519531 6.363281 -5.519531 6.386719 C -5.519531 6.378906 -5.523438 6.375 -5.527344 6.367188 C -5.503906 6.40625 -5.46875 6.433594 -5.433594 6.453125 C -5.375 6.480469 -5.292969 6.492188 -5.191406 6.492188 C -4.589844 6.492188 -4.070312 6.394531 -3.625 6.195312 C -2.855469 5.839844 -1.824219 4.925781 -0.53125 3.457031 L -0.0976562 3.835938 L -0.539062 3.464844 L 1.140625 1.457031 L 1.253906 1.402344 C 3.929688 0.140625 6.199219 -1.613281 8.054688 -3.859375 L 8.496094 -3.492188 L 8.125 -3.054688 L 7.945312 -3.207031 L 8.316406 -3.644531 L 8.757812 -3.277344 C 6.90625 -1.050781 4.6875 0.71875 2.101562 2.023438 Z M 4.839844 -5.316406 C 4.839844 -5.320312 4.839844 -5.324219 4.839844 -5.324219 C 4.84375 -5.320312 4.84375 -5.3125 4.847656 -5.304688 C 4.859375 -5.285156 4.871094 -5.269531 4.886719 -5.261719 C 4.878906 -5.265625 4.859375 -5.273438 4.828125 -5.277344 C 4.769531 -5.292969 4.695312 -5.296875 4.605469 -5.296875 C 4.433594 -5.296875 4.191406 -5.203125 3.882812 -5.015625 C 3.515625 -4.789062 3.085938 -4.445312 2.59375 -3.980469 C 2.261719 -3.660156 1.902344 -3.257812 1.507812 -2.765625 C 1.125 -2.289062 0.839844 -1.867188 0.65625 -1.5 C 0.496094 -1.183594 0.417969 -0.929688 0.421875 -0.730469 L -0.152344 -0.71875 L 0.421875 -0.757812 C 0.421875 -0.71875 0.425781 -0.6875 0.433594 -0.671875 C 0.425781 -0.695312 0.40625 -0.722656 0.378906 -0.753906 C 0.34375 -0.789062 0.304688 -0.816406 0.265625 -0.828125 C 0.261719 -0.828125 0.261719 -0.828125 0.257812 -0.828125 C 0.261719 -0.828125 0.261719 -0.828125 0.261719 -0.828125 C 0.273438 -0.828125 0.285156 -0.828125 0.300781 -0.828125 C 0.386719 -0.828125 0.523438 -0.863281 0.707031 -0.933594 C 0.914062 -1.015625 1.15625 -1.160156 1.441406 -1.363281 C 2.152344 -1.871094 2.910156 -2.59375 3.714844 -3.527344 L 4.40625 -4.371094 L 4.851562 -4.003906 L 4.375 -4.332031 C 4.542969 -4.574219 4.664062 -4.789062 4.746094 -4.976562 C 4.808594 -5.125 4.839844 -5.246094 4.839844 -5.335938 L 5.414062 -5.335938 Z M 5.988281 -5.355469 L 5.992188 -5.34375 L 5.992188 -5.335938 C 5.992188 -4.878906 5.769531 -4.328125 5.324219 -3.679688 L 5.308594 -3.660156 L 4.585938 -2.777344 C 3.722656 -1.773438 2.898438 -0.992188 2.113281 -0.433594 C 1.753906 -0.171875 1.421875 0.0195312 1.125 0.136719 C 0.808594 0.261719 0.53125 0.324219 0.300781 0.324219 C -0.0234375 0.324219 -0.273438 0.230469 -0.453125 0.0429688 C -0.613281 -0.125 -0.703125 -0.367188 -0.726562 -0.679688 L -0.726562 -0.707031 C -0.734375 -1.09375 -0.617188 -1.53125 -0.371094 -2.019531 C -0.152344 -2.457031 0.175781 -2.945312 0.609375 -3.484375 C 1.035156 -4.011719 1.433594 -4.457031 1.804688 -4.820312 C 2.355469 -5.335938 2.847656 -5.730469 3.285156 -5.996094 C 3.777344 -6.296875 4.21875 -6.449219 4.605469 -6.449219 C 4.988281 -6.449219 5.292969 -6.371094 5.523438 -6.21875 C 5.671875 -6.117188 5.789062 -5.992188 5.867188 -5.835938 C 5.945312 -5.691406 5.984375 -5.53125 5.988281 -5.355469 Z M 0.203125 3.003906 C -1.304688 3.667969 -2.503906 4.257812 -3.394531 4.777344 C -4.234375 5.265625 -4.777344 5.675781 -5.015625 6 C -5.144531 6.175781 -5.207031 6.332031 -5.207031 6.464844 C -5.207031 6.375 -5.230469 6.296875 -5.277344 6.234375 C -5.28125 6.226562 -5.285156 6.222656 -5.289062 6.222656 C -5.28125 6.226562 -5.273438 6.234375 -5.261719 6.242188 C -5.265625 6.238281 -5.269531 6.238281 -5.273438 6.238281 C -5.269531 6.238281 -5.269531 6.238281 -5.261719 6.238281 C -5.238281 6.246094 -5.199219 6.25 -5.15625 6.25 C -5.007812 6.25 -4.855469 6.230469 -4.707031 6.191406 C -4.558594 6.15625 -4.398438 6.085938 -4.226562 5.988281 C -4.042969 5.882812 -3.835938 5.738281 -3.613281 5.546875 C -3.375 5.347656 -3.105469 5.089844 -2.804688 4.785156 C -2.496094 4.472656 -2.152344 4.097656 -1.769531 3.660156 L -1.339844 4.042969 L -1.777344 3.671875 L -0.46875 2.109375 L -0.0273438 2.480469 Z M -0.257812 1.953125 L 0.414062 2.847656 L -0.902344 4.414062 L -0.90625 4.421875 C -1.300781 4.871094 -1.660156 5.261719 -1.984375 5.589844 C -2.308594 5.921875 -2.605469 6.199219 -2.871094 6.425781 C -3.148438 6.660156 -3.410156 6.847656 -3.65625 6.988281 C -3.917969 7.136719 -4.171875 7.242188 -4.417969 7.304688 C -4.664062 7.367188 -4.910156 7.398438 -5.15625 7.398438 C -5.484375 7.398438 -5.757812 7.316406 -5.972656 7.148438 C -6.230469 6.945312 -6.359375 6.71875 -6.359375 6.464844 C -6.359375 6.085938 -6.21875 5.703125 -5.941406 5.316406 C -5.605469 4.863281 -4.949219 4.351562 -3.972656 3.78125 C -3.046875 3.242188 -1.808594 2.632812 -0.257812 1.953125 Z M -0.257812 1.953125 "/></g></g></g><g clip-path="url(#c5b0ebdabf)"><g fill="#ebe1db" fill-opacity="1"><g transform="translate(59.239852, 16.281008)"><g><path d="M 3.78125 -0.292969 C 3.363281 -0.0273438 2.914062 0.191406 2.433594 0.363281 C 1.929688 0.539062 1.449219 0.628906 0.988281 0.628906 C 0.519531 0.628906 0.148438 0.574219 -0.125 0.46875 C -0.414062 0.355469 -0.652344 0.195312 -0.847656 -0.015625 C -1.226562 -0.429688 -1.417969 -0.9375 -1.417969 -1.539062 C -1.414062 -2.078125 -1.253906 -2.679688 -0.933594 -3.355469 C -0.652344 -3.953125 -0.234375 -4.496094 0.324219 -4.980469 C 0.847656 -5.441406 1.316406 -5.789062 1.726562 -6.023438 C 2.546875 -6.492188 3.324219 -6.726562 4.070312 -6.726562 C 4.492188 -6.726562 4.832031 -6.652344 5.085938 -6.496094 C 5.253906 -6.398438 5.382812 -6.273438 5.476562 -6.117188 C 5.570312 -5.964844 5.625 -5.792969 5.636719 -5.601562 C 5.671875 -5.09375 5.425781 -4.601562 4.898438 -4.128906 C 4.464844 -3.742188 3.824219 -3.347656 2.976562 -2.945312 C 2.367188 -2.660156 1.605469 -2.367188 0.691406 -2.066406 L 0.511719 -2.613281 L 1 -2.3125 C 0.84375 -2.054688 0.726562 -1.828125 0.652344 -1.628906 C 0.589844 -1.460938 0.558594 -1.320312 0.558594 -1.207031 C 0.558594 -1.09375 0.570312 -1.003906 0.59375 -0.941406 C 0.601562 -0.910156 0.613281 -0.890625 0.625 -0.882812 C 0.710938 -0.816406 0.863281 -0.78125 1.089844 -0.78125 C 1.386719 -0.78125 1.710938 -0.847656 2.070312 -0.980469 C 2.449219 -1.121094 2.808594 -1.296875 3.140625 -1.515625 C 3.480469 -1.734375 3.785156 -1.976562 4.0625 -2.234375 C 4.347656 -2.503906 4.601562 -2.761719 4.820312 -3.007812 C 5.042969 -3.253906 5.222656 -3.464844 5.363281 -3.644531 C 5.53125 -3.859375 5.652344 -4.003906 5.734375 -4.074219 L 6.097656 -4.398438 L 7.207031 -3.503906 L 6.675781 -3.054688 C 6.628906 -3.015625 6.539062 -2.910156 6.402344 -2.734375 C 6.234375 -2.519531 6.023438 -2.273438 5.769531 -2 C 5.515625 -1.730469 5.226562 -1.445312 4.902344 -1.148438 C 4.5625 -0.835938 4.1875 -0.550781 3.78125 -0.292969 Z M 3.160156 -1.261719 C 3.515625 -1.484375 3.835938 -1.730469 4.125 -1.996094 C 4.429688 -2.273438 4.695312 -2.535156 4.925781 -2.785156 C 5.160156 -3.035156 5.347656 -3.253906 5.496094 -3.441406 C 5.679688 -3.675781 5.824219 -3.839844 5.933594 -3.933594 L 6.304688 -3.492188 L 5.941406 -3.046875 L 5.753906 -3.199219 L 6.117188 -3.644531 L 6.496094 -3.214844 C 6.46875 -3.191406 6.394531 -3.097656 6.269531 -2.9375 C 6.113281 -2.738281 5.917969 -2.507812 5.675781 -2.238281 C 5.4375 -1.96875 5.160156 -1.6875 4.847656 -1.394531 C 4.523438 -1.089844 4.164062 -0.808594 3.765625 -0.550781 C 3.363281 -0.289062 2.929688 -0.0703125 2.464844 0.0976562 C 1.980469 0.277344 1.523438 0.367188 1.089844 0.367188 C 0.59375 0.367188 0.199219 0.25 -0.0976562 0.0117188 C -0.425781 -0.257812 -0.59375 -0.664062 -0.59375 -1.207031 C -0.59375 -1.679688 -0.386719 -2.246094 0.0234375 -2.914062 L 0.132812 -3.09375 L 0.332031 -3.160156 C 1.203125 -3.445312 1.917969 -3.722656 2.484375 -3.988281 C 3.234375 -4.339844 3.78125 -4.671875 4.128906 -4.984375 C 4.273438 -5.113281 4.378906 -5.234375 4.4375 -5.34375 C 4.476562 -5.414062 4.496094 -5.472656 4.492188 -5.515625 C 4.492188 -5.523438 4.492188 -5.527344 4.488281 -5.53125 C 4.492188 -5.527344 4.492188 -5.523438 4.496094 -5.519531 C 4.5 -5.515625 4.503906 -5.507812 4.503906 -5.507812 L 4.507812 -5.503906 C 4.503906 -5.507812 4.503906 -5.507812 4.5 -5.507812 C 4.472656 -5.527344 4.429688 -5.539062 4.371094 -5.550781 C 4.289062 -5.570312 4.1875 -5.578125 4.070312 -5.578125 C 3.53125 -5.578125 2.9375 -5.394531 2.296875 -5.023438 C 1.953125 -4.828125 1.546875 -4.523438 1.078125 -4.117188 C 0.644531 -3.734375 0.320312 -3.316406 0.105469 -2.859375 C -0.351562 -1.902344 -0.386719 -1.214844 0 -0.792969 C 0.0742188 -0.714844 0.171875 -0.652344 0.292969 -0.601562 C 0.433594 -0.546875 0.664062 -0.519531 0.988281 -0.519531 C 1.316406 -0.519531 1.671875 -0.585938 2.050781 -0.722656 C 2.449219 -0.863281 2.820312 -1.042969 3.160156 -1.261719 Z M 0.527344 -3.46875 C 1.402344 -3.777344 2.117188 -4.082031 2.675781 -4.382812 C 3.191406 -4.664062 3.554688 -4.933594 3.769531 -5.191406 C 3.855469 -5.292969 3.898438 -5.375 3.898438 -5.433594 C 3.898438 -5.460938 3.898438 -5.476562 3.894531 -5.484375 C 3.902344 -5.464844 3.914062 -5.441406 3.933594 -5.417969 C 3.960938 -5.394531 3.984375 -5.375 4.015625 -5.363281 C 4.019531 -5.363281 4.023438 -5.359375 4.027344 -5.359375 C 4.023438 -5.359375 4.015625 -5.363281 4.003906 -5.363281 C 3.851562 -5.363281 3.652344 -5.277344 3.40625 -5.105469 C 3.101562 -4.890625 2.757812 -4.5625 2.375 -4.117188 C 1.820312 -3.464844 1.425781 -2.964844 1.203125 -2.617188 L 0.71875 -2.929688 Z M 0.910156 -2.386719 L -0.675781 -1.828125 L 0.234375 -3.238281 C 0.488281 -3.632812 0.910156 -4.175781 1.503906 -4.863281 C 1.949219 -5.382812 2.363281 -5.777344 2.746094 -6.046875 C 3.191406 -6.355469 3.609375 -6.511719 4.003906 -6.511719 C 4.328125 -6.511719 4.585938 -6.40625 4.777344 -6.203125 C 4.957031 -6.007812 5.046875 -5.75 5.046875 -5.433594 C 5.046875 -5.097656 4.917969 -4.773438 4.65625 -4.457031 C 4.347656 -4.085938 3.871094 -3.722656 3.222656 -3.371094 C 2.613281 -3.042969 1.84375 -2.710938 0.910156 -2.386719 Z M 0.910156 -2.386719 "/></g></g></g></g><g fill="#FDFCF9" fill-opacity="1"><g transform="translate(0.696547, 16.281008)"><g><path d="M 13.1875 -12.578125 C 13.738281 -12.578125 14.015625 -12.359375 14.015625 -11.921875 C 14.015625 -11.253906 13.503906 -10.515625 12.484375 -9.703125 C 11.515625 -8.929688 10.328125 -8.257812 8.921875 -7.6875 C 7.429688 -7.101562 6.0625 -6.78125 4.8125 -6.71875 C 2.957031 -4.675781 2.03125 -3.070312 2.03125 -1.90625 C 2.03125 -0.988281 2.46875 -0.441406 3.34375 -0.265625 C 3.34375 -1.878906 3.898438 -3.34375 5.015625 -4.65625 C 5.703125 -5.457031 6.484375 -6.019531 7.359375 -6.34375 C 7.796875 -6.5 8.25 -6.578125 8.71875 -6.578125 C 9.195312 -6.578125 9.566406 -6.460938 9.828125 -6.234375 C 10.097656 -6.003906 10.234375 -5.707031 10.234375 -5.34375 C 10.234375 -4.988281 10.15625 -4.613281 10 -4.21875 C 9.84375 -3.820312 9.625 -3.425781 9.34375 -3.03125 C 9.070312 -2.632812 8.738281 -2.25 8.34375 -1.875 C 7.957031 -1.507812 7.523438 -1.1875 7.046875 -0.90625 C 6.003906 -0.289062 4.910156 0.015625 3.765625 0.015625 L 3.6875 0.015625 C 3.664062 0.015625 3.640625 0.015625 3.609375 0.015625 C 3.640625 1.054688 3.816406 1.78125 4.140625 2.1875 C 4.160156 2.21875 4.171875 2.242188 4.171875 2.265625 L 4.171875 2.3125 C 4.171875 2.34375 4.144531 2.359375 4.09375 2.359375 C 3.863281 2.359375 3.648438 1.882812 3.453125 0.9375 C 3.398438 0.644531 3.363281 0.328125 3.34375 -0.015625 C 2.46875 -0.128906 1.878906 -0.578125 1.578125 -1.359375 C 1.484375 -1.617188 1.4375 -1.914062 1.4375 -2.25 C 1.4375 -3.65625 2.070312 -5.175781 3.34375 -6.8125 C 2.34375 -7.039062 1.703125 -7.5625 1.421875 -8.375 C 1.335938 -8.625 1.296875 -8.890625 1.296875 -9.171875 C 1.296875 -9.460938 1.375 -9.765625 1.53125 -10.078125 C 1.6875 -10.390625 1.90625 -10.691406 2.1875 -10.984375 C 2.46875 -11.285156 2.800781 -11.566406 3.1875 -11.828125 C 3.570312 -12.097656 3.992188 -12.332031 4.453125 -12.53125 C 5.460938 -12.957031 6.488281 -13.171875 7.53125 -13.171875 C 8.007812 -13.171875 8.25 -13.117188 8.25 -13.015625 C 8.25 -12.972656 8.210938 -12.953125 8.140625 -12.953125 L 7.484375 -12.984375 C 6.210938 -12.984375 4.945312 -12.554688 3.6875 -11.703125 C 2.875 -11.160156 2.296875 -10.550781 1.953125 -9.875 C 1.773438 -9.519531 1.6875 -9.203125 1.6875 -8.921875 C 1.6875 -8.640625 1.726562 -8.40625 1.8125 -8.21875 C 1.894531 -8.039062 2.007812 -7.875 2.15625 -7.71875 C 2.476562 -7.382812 2.929688 -7.148438 3.515625 -7.015625 C 4.765625 -8.578125 6.285156 -9.882812 8.078125 -10.9375 C 9.953125 -12.03125 11.65625 -12.578125 13.1875 -12.578125 Z M 13.796875 -11.890625 C 13.796875 -12.203125 13.5625 -12.359375 13.09375 -12.359375 C 12.238281 -12.359375 11.003906 -11.804688 9.390625 -10.703125 C 7.828125 -9.640625 6.375 -8.390625 5.03125 -6.953125 C 6.695312 -7.140625 8.570312 -7.820312 10.65625 -9 C 11.894531 -9.695312 12.800781 -10.375 13.375 -11.03125 C 13.65625 -11.351562 13.796875 -11.640625 13.796875 -11.890625 Z M 3.609375 -0.21875 C 3.648438 -0.21875 3.691406 -0.21875 3.734375 -0.21875 L 3.875 -0.21875 C 4.632812 -0.21875 5.46875 -0.554688 6.375 -1.234375 C 7.1875 -1.847656 7.894531 -2.597656 8.5 -3.484375 C 9.101562 -4.359375 9.40625 -5.078125 9.40625 -5.640625 C 9.40625 -5.890625 9.335938 -6.066406 9.203125 -6.171875 C 9.066406 -6.285156 8.84375 -6.34375 8.53125 -6.34375 C 8.21875 -6.34375 7.875 -6.269531 7.5 -6.125 C 7.125 -5.976562 6.75 -5.773438 6.375 -5.515625 C 6.007812 -5.253906 5.660156 -4.9375 5.328125 -4.5625 C 4.992188 -4.1875 4.695312 -3.773438 4.4375 -3.328125 C 3.882812 -2.335938 3.609375 -1.304688 3.609375 -0.234375 Z M 3.609375 -0.21875 "/></g></g></g><g fill="#FDFCF9" fill-opacity="1"><g transform="translate(12.818242, 16.281008)"><g><path d="M 4.046875 -1.453125 C 3.816406 -1.453125 3.65625 -1.539062 3.5625 -1.71875 C 2.84375 -0.90625 2.070312 -0.367188 1.25 -0.109375 C 0.96875 -0.0234375 0.695312 0.015625 0.4375 0.015625 C 0.175781 0.015625 -0.0390625 -0.0078125 -0.21875 -0.0625 C -0.40625 -0.125 -0.5625 -0.210938 -0.6875 -0.328125 C -1.164062 -0.742188 -1.210938 -1.460938 -0.828125 -2.484375 C -0.679688 -2.890625 -0.488281 -3.265625 -0.25 -3.609375 C -0.0078125 -3.953125 0.253906 -4.269531 0.546875 -4.5625 C 0.847656 -4.863281 1.171875 -5.132812 1.515625 -5.375 C 2.285156 -5.894531 3.035156 -6.15625 3.765625 -6.15625 C 4.085938 -6.15625 4.363281 -6.070312 4.59375 -5.90625 C 4.820312 -5.738281 4.945312 -5.5 4.96875 -5.1875 C 4.988281 -4.882812 4.96875 -4.597656 4.90625 -4.328125 C 4.851562 -4.054688 4.773438 -3.785156 4.671875 -3.515625 C 4.453125 -2.960938 4.144531 -2.441406 3.75 -1.953125 C 3.789062 -1.785156 3.90625 -1.703125 4.09375 -1.703125 C 4.28125 -1.703125 4.457031 -1.742188 4.625 -1.828125 C 4.800781 -1.910156 4.972656 -2.015625 5.140625 -2.140625 C 5.316406 -2.273438 5.488281 -2.421875 5.65625 -2.578125 C 5.820312 -2.734375 5.972656 -2.882812 6.109375 -3.03125 L 6.453125 -3.40625 C 6.546875 -3.519531 6.613281 -3.597656 6.65625 -3.640625 L 6.859375 -3.5 C 6.773438 -3.425781 6.671875 -3.320312 6.546875 -3.1875 C 6.429688 -3.050781 6.300781 -2.910156 6.15625 -2.765625 C 6.15625 -2.765625 5.992188 -2.609375 5.671875 -2.296875 C 5.054688 -1.734375 4.515625 -1.453125 4.046875 -1.453125 Z M 0.3125 -0.328125 C 0.40625 -0.273438 0.539062 -0.25 0.71875 -0.25 C 1.101562 -0.25 1.601562 -0.46875 2.21875 -0.90625 C 2.6875 -1.238281 3.101562 -1.625 3.46875 -2.0625 L 3.46875 -2.09375 C 3.46875 -2.601562 3.660156 -2.988281 4.046875 -3.25 C 4.140625 -3.320312 4.234375 -3.375 4.328125 -3.40625 C 4.617188 -4.007812 4.753906 -4.507812 4.734375 -4.90625 C 4.691406 -5.519531 4.460938 -5.828125 4.046875 -5.828125 C 3.335938 -5.828125 2.347656 -5.03125 1.078125 -3.4375 C 0.253906 -2.40625 -0.128906 -1.601562 -0.078125 -1.03125 C -0.078125 -0.695312 0.0507812 -0.460938 0.3125 -0.328125 Z M 0.3125 -0.328125 "/></g></g></g><g fill="#FDFCF9" fill-opacity="1"><g transform="translate(19.408853, 16.281008)"><g><path d="M 0.328125 -0.171875 C 0.160156 -0.203125 -0.0195312 -0.21875 -0.21875 -0.21875 C -0.53125 -0.21875 -0.804688 -0.1875 -1.046875 -0.125 L 2.0625 -4.578125 C 2.457031 -5.117188 2.660156 -5.441406 2.671875 -5.546875 C 2.691406 -5.742188 2.628906 -5.84375 2.484375 -5.84375 C 2.253906 -5.84375 1.703125 -5.296875 0.828125 -4.203125 L 0.25 -3.5 C 0.195312 -3.46875 0.144531 -3.476562 0.09375 -3.53125 C 0.0507812 -3.582031 0.0390625 -3.617188 0.0625 -3.640625 C 0.238281 -3.828125 0.4375 -4.0625 0.65625 -4.34375 C 0.875 -4.632812 1.101562 -4.910156 1.34375 -5.171875 C 1.925781 -5.828125 2.410156 -6.15625 2.796875 -6.15625 C 3.460938 -6.15625 3.675781 -5.816406 3.4375 -5.140625 C 3.382812 -4.992188 3.273438 -4.804688 3.109375 -4.578125 L 1.234375 -1.953125 L 1.28125 -1.859375 C 2.78125 -3.515625 3.847656 -4.609375 4.484375 -5.140625 C 5.085938 -5.640625 5.535156 -5.929688 5.828125 -6.015625 C 6.128906 -6.109375 6.375 -6.15625 6.5625 -6.15625 C 6.757812 -6.15625 6.921875 -6.125 7.046875 -6.0625 C 7.179688 -6.007812 7.289062 -5.941406 7.375 -5.859375 C 7.53125 -5.703125 7.609375 -5.515625 7.609375 -5.296875 C 7.609375 -5.078125 7.566406 -4.851562 7.484375 -4.625 C 7.398438 -4.40625 7.265625 -4.140625 7.078125 -3.828125 C 6.671875 -3.179688 5.992188 -2.34375 5.046875 -1.3125 C 4.648438 -0.90625 4.441406 -0.664062 4.421875 -0.59375 C 4.410156 -0.53125 4.40625 -0.476562 4.40625 -0.4375 C 4.40625 -0.300781 4.585938 -0.234375 4.953125 -0.234375 C 5.316406 -0.234375 5.660156 -0.304688 5.984375 -0.453125 C 6.304688 -0.609375 6.617188 -0.800781 6.921875 -1.03125 C 7.234375 -1.269531 7.523438 -1.53125 7.796875 -1.8125 C 8.078125 -2.09375 8.328125 -2.359375 8.546875 -2.609375 C 8.773438 -2.859375 8.960938 -3.078125 9.109375 -3.265625 C 9.265625 -3.460938 9.367188 -3.585938 9.421875 -3.640625 L 9.609375 -3.5 C 9.546875 -3.425781 9.4375 -3.289062 9.28125 -3.09375 C 9.125 -2.894531 8.929688 -2.664062 8.703125 -2.40625 C 8.472656 -2.15625 8.210938 -1.882812 7.921875 -1.59375 C 7.628906 -1.3125 7.320312 -1.050781 7 -0.8125 C 6.25 -0.257812 5.566406 0.015625 4.953125 0.015625 C 4.421875 0.015625 4.046875 -0.117188 3.828125 -0.390625 C 3.765625 -0.472656 3.734375 -0.570312 3.734375 -0.6875 C 3.734375 -0.800781 3.75 -0.929688 3.78125 -1.078125 C 3.8125 -1.222656 3.890625 -1.410156 4.015625 -1.640625 C 4.296875 -2.117188 4.695312 -2.648438 5.21875 -3.234375 C 5.738281 -3.816406 6.078125 -4.207031 6.234375 -4.40625 C 6.398438 -4.613281 6.53125 -4.789062 6.625 -4.9375 C 6.800781 -5.226562 6.890625 -5.453125 6.890625 -5.609375 C 6.890625 -5.816406 6.75 -5.921875 6.46875 -5.921875 C 5.875 -5.921875 4.894531 -5.253906 3.53125 -3.921875 C 2.84375 -3.242188 2.050781 -2.359375 1.15625 -1.265625 Z M 0.328125 -0.171875 "/></g></g></g><g fill="#FDFCF9" fill-opacity="1"><g transform="translate(28.765007, 16.281008)"><g><path d="M 4.640625 -5.390625 C 4.617188 -5.742188 4.398438 -5.921875 3.984375 -5.921875 C 3.109375 -5.921875 1.984375 -5.015625 0.609375 -3.203125 C 0.0351562 -2.453125 -0.25 -1.769531 -0.25 -1.15625 C -0.25 -0.894531 -0.175781 -0.695312 -0.03125 -0.5625 C 0.21875 -0.320312 0.539062 -0.203125 0.9375 -0.203125 C 1.332031 -0.203125 1.75 -0.28125 2.1875 -0.4375 C 2.625 -0.601562 3.03125 -0.804688 3.40625 -1.046875 C 3.789062 -1.296875 4.132812 -1.566406 4.4375 -1.859375 C 4.75 -2.148438 5.019531 -2.421875 5.25 -2.671875 C 5.476562 -2.929688 5.65625 -3.148438 5.78125 -3.328125 C 5.914062 -3.503906 6 -3.609375 6.03125 -3.640625 L 6.21875 -3.5 L 5.984375 -3.171875 C 4.859375 -1.691406 3.597656 -0.703125 2.203125 -0.203125 C 1.742188 -0.0351562 1.304688 0.046875 0.890625 0.046875 C 0.472656 0.046875 0.148438 0.00390625 -0.078125 -0.078125 C -0.316406 -0.160156 -0.515625 -0.269531 -0.671875 -0.40625 C -0.960938 -0.707031 -1.109375 -1.078125 -1.109375 -1.515625 C -1.109375 -2.367188 -0.738281 -3.238281 0 -4.125 C 0.582031 -4.8125 1.269531 -5.34375 2.0625 -5.71875 C 2.707031 -6.019531 3.335938 -6.164062 3.953125 -6.15625 C 4.492188 -6.132812 4.832031 -5.953125 4.96875 -5.609375 C 5.113281 -5.253906 5.035156 -4.929688 4.734375 -4.640625 C 4.535156 -4.429688 4.347656 -4.328125 4.171875 -4.328125 C 3.734375 -4.328125 3.507812 -4.503906 3.5 -4.859375 C 3.5 -5.023438 3.5625 -5.160156 3.6875 -5.265625 C 3.820312 -5.378906 3.957031 -5.441406 4.09375 -5.453125 C 4.28125 -5.472656 4.460938 -5.441406 4.640625 -5.359375 Z M 4.640625 -5.390625 "/></g></g></g><g fill="#FDFCF9" fill-opacity="1"><g transform="translate(34.736067, 16.281008)"><g><path d="M 4.75 -8.109375 C 4.664062 -8.035156 4.566406 -7.972656 4.453125 -7.921875 C 4.347656 -7.878906 4.226562 -7.859375 4.09375 -7.859375 C 3.957031 -7.859375 3.835938 -7.910156 3.734375 -8.015625 C 3.640625 -8.128906 3.59375 -8.25 3.59375 -8.375 C 3.59375 -8.507812 3.613281 -8.625 3.65625 -8.71875 C 3.707031 -8.820312 3.773438 -8.914062 3.859375 -9 C 4.035156 -9.175781 4.222656 -9.265625 4.421875 -9.265625 C 4.628906 -9.265625 4.78125 -9.207031 4.875 -9.09375 C 4.976562 -8.988281 5.03125 -8.867188 5.03125 -8.734375 C 5.03125 -8.609375 5.003906 -8.492188 4.953125 -8.390625 C 4.910156 -8.285156 4.84375 -8.191406 4.75 -8.109375 Z M -0.953125 -0.515625 C -0.953125 -0.328125 -0.773438 -0.234375 -0.421875 -0.234375 C -0.0664062 -0.234375 0.265625 -0.3125 0.578125 -0.46875 C 0.890625 -0.632812 1.207031 -0.835938 1.53125 -1.078125 C 1.851562 -1.328125 2.160156 -1.59375 2.453125 -1.875 L 3.265625 -2.6875 C 3.503906 -2.9375 3.703125 -3.148438 3.859375 -3.328125 C 4.015625 -3.515625 4.109375 -3.625 4.140625 -3.65625 L 4.3125 -3.5 C 4.257812 -3.4375 4.148438 -3.304688 3.984375 -3.109375 C 3.816406 -2.910156 3.609375 -2.679688 3.359375 -2.421875 C 3.117188 -2.160156 2.84375 -1.882812 2.53125 -1.59375 C 2.226562 -1.3125 1.910156 -1.050781 1.578125 -0.8125 C 0.804688 -0.257812 0.128906 0.015625 -0.453125 0.015625 C -0.816406 0.015625 -1.109375 -0.0507812 -1.328125 -0.1875 C -1.554688 -0.320312 -1.671875 -0.472656 -1.671875 -0.640625 C -1.671875 -0.816406 -1.648438 -0.972656 -1.609375 -1.109375 C -1.578125 -1.242188 -1.515625 -1.40625 -1.421875 -1.59375 C -1.328125 -1.789062 -1.191406 -2.019531 -1.015625 -2.28125 C -0.847656 -2.539062 -0.628906 -2.847656 -0.359375 -3.203125 C -0.0859375 -3.566406 0.242188 -3.984375 0.640625 -4.453125 L 2.015625 -6.09375 C 2.085938 -6.070312 2.234375 -6.0625 2.453125 -6.0625 L 2.875 -6.0625 C 3.03125 -6.0625 3.160156 -6.066406 3.265625 -6.078125 C 1.273438 -3.710938 0.160156 -2.363281 -0.078125 -2.03125 C -0.328125 -1.707031 -0.515625 -1.457031 -0.640625 -1.28125 C -0.847656 -0.957031 -0.953125 -0.703125 -0.953125 -0.515625 Z M -0.953125 -0.515625 "/></g></g></g><g fill="#FDFCF9" fill-opacity="1"><g transform="translate(38.803571, 16.281008)"><g><path d="M 3.46875 -0.765625 C 3.09375 -0.523438 2.679688 -0.328125 2.234375 -0.171875 C 1.796875 -0.0234375 1.378906 0.046875 0.984375 0.046875 C 0.585938 0.046875 0.285156 0.0078125 0.078125 -0.0625 C -0.117188 -0.144531 -0.285156 -0.257812 -0.421875 -0.40625 C -0.984375 -1.007812 -0.976562 -1.910156 -0.40625 -3.109375 C -0.164062 -3.628906 0.203125 -4.109375 0.703125 -4.546875 C 1.203125 -4.984375 1.640625 -5.304688 2.015625 -5.515625 C 2.742188 -5.941406 3.425781 -6.15625 4.0625 -6.15625 C 4.695312 -6.15625 5.03125 -5.957031 5.0625 -5.5625 C 5.101562 -4.914062 4.328125 -4.21875 2.734375 -3.46875 C 2.140625 -3.1875 1.398438 -2.898438 0.515625 -2.609375 C 0.160156 -2.035156 -0.015625 -1.566406 -0.015625 -1.203125 C -0.015625 -0.847656 0.078125 -0.59375 0.265625 -0.4375 C 0.453125 -0.28125 0.726562 -0.203125 1.09375 -0.203125 C 1.457031 -0.203125 1.847656 -0.28125 2.265625 -0.4375 C 2.691406 -0.59375 3.085938 -0.789062 3.453125 -1.03125 C 3.816406 -1.269531 4.148438 -1.53125 4.453125 -1.8125 C 4.753906 -2.09375 5.019531 -2.363281 5.25 -2.625 C 5.476562 -2.882812 5.664062 -3.109375 5.8125 -3.296875 C 5.957031 -3.484375 6.054688 -3.597656 6.109375 -3.640625 L 6.296875 -3.5 C 6.222656 -3.425781 6.109375 -3.285156 5.953125 -3.078125 C 5.796875 -2.878906 5.59375 -2.648438 5.34375 -2.390625 C 5.101562 -2.128906 4.828125 -1.851562 4.515625 -1.5625 C 4.203125 -1.28125 3.851562 -1.015625 3.46875 -0.765625 Z M 0.71875 -2.921875 C 2.53125 -3.554688 3.695312 -4.191406 4.21875 -4.828125 C 4.382812 -5.035156 4.46875 -5.238281 4.46875 -5.4375 C 4.46875 -5.769531 4.3125 -5.9375 4 -5.9375 C 3.445312 -5.9375 2.757812 -5.453125 1.9375 -4.484375 C 1.363281 -3.816406 0.957031 -3.296875 0.71875 -2.921875 Z M 0.71875 -2.921875 "/></g></g></g><g fill="#FDFCF9" fill-opacity="1"><g transform="translate(44.85544, 16.281008)"><g><path d="M 1.546875 -0.703125 C 1.546875 -0.421875 1.664062 -0.28125 1.90625 -0.28125 C 2.144531 -0.28125 2.40625 -0.351562 2.6875 -0.5 C 2.96875 -0.644531 3.253906 -0.828125 3.546875 -1.046875 C 3.847656 -1.273438 4.144531 -1.519531 4.4375 -1.78125 L 5.21875 -2.5625 C 5.457031 -2.8125 5.664062 -3.035156 5.84375 -3.234375 L 6.203125 -3.640625 L 6.390625 -3.5 C 6.273438 -3.394531 6.117188 -3.234375 5.921875 -3.015625 L 5.28125 -2.296875 C 3.820312 -0.753906 2.566406 0.015625 1.515625 0.015625 C 1.171875 0.015625 0.894531 -0.0664062 0.6875 -0.234375 C 0.476562 -0.398438 0.375 -0.625 0.375 -0.90625 C 0.375 -1.800781 1.675781 -3.117188 4.28125 -4.859375 C 3.007812 -5.066406 2.128906 -5.28125 1.640625 -5.5 C 1.242188 -4.6875 0.640625 -3.859375 -0.171875 -3.015625 C -0.367188 -2.816406 -0.488281 -2.707031 -0.53125 -2.6875 C -0.582031 -2.664062 -0.613281 -2.648438 -0.625 -2.640625 C -0.632812 -2.628906 -0.640625 -2.644531 -0.640625 -2.6875 C -0.648438 -2.726562 -0.648438 -2.757812 -0.640625 -2.78125 C -0.640625 -2.800781 -0.628906 -2.828125 -0.609375 -2.859375 C -0.328125 -3.171875 -0.0664062 -3.472656 0.171875 -3.765625 C 0.722656 -4.460938 1.132812 -5.082031 1.40625 -5.625 C 1.1875 -5.757812 1.0625 -5.90625 1.03125 -6.0625 C 1 -6.21875 1 -6.363281 1.03125 -6.5 C 1.070312 -6.632812 1.125 -6.753906 1.1875 -6.859375 C 1.34375 -7.085938 1.523438 -7.203125 1.734375 -7.203125 C 2.109375 -7.203125 2.296875 -7.066406 2.296875 -6.796875 C 2.296875 -6.660156 2.269531 -6.546875 2.21875 -6.453125 L 2.0625 -6.171875 C 1.945312 -6.035156 1.890625 -5.875 1.890625 -5.6875 C 1.890625 -5.582031 2.117188 -5.484375 2.578125 -5.390625 C 3.035156 -5.296875 3.363281 -5.226562 3.5625 -5.1875 C 3.976562 -5.113281 4.304688 -5.070312 4.546875 -5.0625 C 4.710938 -5.050781 4.796875 -5.003906 4.796875 -4.921875 C 4.796875 -4.867188 4.695312 -4.765625 4.5 -4.609375 C 4.3125 -4.453125 4.097656 -4.257812 3.859375 -4.03125 C 3.628906 -3.8125 3.40625 -3.582031 3.1875 -3.34375 C 2.96875 -3.101562 2.757812 -2.859375 2.5625 -2.609375 C 2.363281 -2.359375 2.1875 -2.113281 2.03125 -1.875 C 1.707031 -1.375 1.546875 -0.984375 1.546875 -0.703125 Z M 1.546875 -0.703125 "/></g></g></g><g fill="#FDFCF9" fill-opacity="1"><g transform="translate(50.997099, 16.281008)"><g><path d="M 1.84375 1.515625 C 4.363281 0.242188 6.523438 -1.472656 8.328125 -3.640625 L 8.5 -3.5 C 6.59375 -1.1875 4.257812 0.617188 1.5 1.921875 L -0.09375 3.828125 C -1.4375 5.367188 -2.53125 6.332031 -3.375 6.71875 C -3.894531 6.945312 -4.5 7.0625 -5.1875 7.0625 C -5.5625 7.0625 -5.832031 6.9375 -6 6.6875 C -6.113281 6.507812 -6.113281 6.296875 -6 6.046875 C -5.894531 5.796875 -5.75 5.566406 -5.5625 5.359375 C -5.375 5.160156 -5.117188 4.941406 -4.796875 4.703125 C -4.484375 4.472656 -4.09375 4.222656 -3.625 3.953125 C -2.65625 3.410156 -1.347656 2.789062 0.296875 2.09375 L 3.90625 -2.40625 L 3.84375 -2.4375 C 2.75 -1.195312 1.765625 -0.421875 0.890625 -0.109375 C 0.640625 -0.0234375 0.421875 0.015625 0.234375 0.015625 C -0.492188 0.015625 -0.867188 -0.375 -0.890625 -1.15625 C -0.890625 -2.082031 -0.535156 -2.960938 0.171875 -3.796875 C 1.460938 -5.367188 2.863281 -6.15625 4.375 -6.15625 C 4.769531 -6.15625 5.082031 -6.085938 5.3125 -5.953125 C 5.6875 -5.742188 5.769531 -5.390625 5.5625 -4.890625 L 6.40625 -5.96875 C 6.582031 -5.925781 6.742188 -5.90625 6.890625 -5.90625 C 7.234375 -5.90625 7.484375 -5.914062 7.640625 -5.9375 Z M 5.421875 -5.328125 C 5.410156 -5.691406 5.140625 -5.875 4.609375 -5.875 C 4.046875 -5.875 3.242188 -5.382812 2.203125 -4.40625 C 1.847656 -4.0625 1.46875 -3.632812 1.0625 -3.125 C 0.25 -2.101562 -0.148438 -1.300781 -0.140625 -0.71875 C -0.128906 -0.539062 -0.09375 -0.414062 -0.03125 -0.34375 C 0.03125 -0.28125 0.140625 -0.25 0.296875 -0.25 C 0.460938 -0.25 0.671875 -0.296875 0.921875 -0.390625 C 1.171875 -0.492188 1.457031 -0.660156 1.78125 -0.890625 C 2.53125 -1.429688 3.320312 -2.1875 4.15625 -3.15625 L 4.859375 -4 C 5.234375 -4.550781 5.421875 -4.992188 5.421875 -5.328125 Z M -0.015625 2.484375 C -3.078125 3.816406 -4.894531 4.875 -5.46875 5.65625 C -5.675781 5.9375 -5.78125 6.207031 -5.78125 6.46875 C -5.78125 6.53125 -5.722656 6.601562 -5.609375 6.6875 C -5.492188 6.78125 -5.335938 6.828125 -5.140625 6.828125 C -4.941406 6.828125 -4.742188 6.800781 -4.546875 6.75 C -4.359375 6.695312 -4.15625 6.609375 -3.9375 6.484375 C -3.71875 6.359375 -3.484375 6.191406 -3.234375 5.984375 C -2.984375 5.773438 -2.703125 5.507812 -2.390625 5.1875 C -2.078125 4.863281 -1.722656 4.484375 -1.328125 4.046875 Z M -0.015625 2.484375 "/></g></g></g><g fill="#FDFCF9" fill-opacity="1"><g transform="translate(59.239852, 16.281008)"><g><path d="M 3.46875 -0.765625 C 3.09375 -0.523438 2.679688 -0.328125 2.234375 -0.171875 C 1.796875 -0.0234375 1.378906 0.046875 0.984375 0.046875 C 0.585938 0.046875 0.285156 0.0078125 0.078125 -0.0625 C -0.117188 -0.144531 -0.285156 -0.257812 -0.421875 -0.40625 C -0.984375 -1.007812 -0.976562 -1.910156 -0.40625 -3.109375 C -0.164062 -3.628906 0.203125 -4.109375 0.703125 -4.546875 C 1.203125 -4.984375 1.640625 -5.304688 2.015625 -5.515625 C 2.742188 -5.941406 3.425781 -6.15625 4.0625 -6.15625 C 4.695312 -6.15625 5.03125 -5.957031 5.0625 -5.5625 C 5.101562 -4.914062 4.328125 -4.21875 2.734375 -3.46875 C 2.140625 -3.1875 1.398438 -2.898438 0.515625 -2.609375 C 0.160156 -2.035156 -0.015625 -1.566406 -0.015625 -1.203125 C -0.015625 -0.847656 0.078125 -0.59375 0.265625 -0.4375 C 0.453125 -0.28125 0.726562 -0.203125 1.09375 -0.203125 C 1.457031 -0.203125 1.847656 -0.28125 2.265625 -0.4375 C 2.691406 -0.59375 3.085938 -0.789062 3.453125 -1.03125 C 3.816406 -1.269531 4.148438 -1.53125 4.453125 -1.8125 C 4.753906 -2.09375 5.019531 -2.363281 5.25 -2.625 C 5.476562 -2.882812 5.664062 -3.109375 5.8125 -3.296875 C 5.957031 -3.484375 6.054688 -3.597656 6.109375 -3.640625 L 6.296875 -3.5 C 6.222656 -3.425781 6.109375 -3.285156 5.953125 -3.078125 C 5.796875 -2.878906 5.59375 -2.648438 5.34375 -2.390625 C 5.101562 -2.128906 4.828125 -1.851562 4.515625 -1.5625 C 4.203125 -1.28125 3.851562 -1.015625 3.46875 -0.765625 Z M 0.71875 -2.921875 C 2.53125 -3.554688 3.695312 -4.191406 4.21875 -4.828125 C 4.382812 -5.035156 4.46875 -5.238281 4.46875 -5.4375 C 4.46875 -5.769531 4.3125 -5.9375 4 -5.9375 C 3.445312 -5.9375 2.757812 -5.453125 1.9375 -4.484375 C 1.363281 -3.816406 0.957031 -3.296875 0.71875 -2.921875 Z M 0.71875 -2.921875 "/></g></g></g></g></g><path stroke-linecap="butt" transform="matrix(0.75, 0.000000000000000929, -0.000000000000000929, 0.75, 15, 81.617868)" fill="none" stroke-linejoin="miter" d="M -0.0000005 0.499093 L 34.406252 0.499093 " stroke="#FDFCF9" stroke-width="1" stroke-opacity="1" stroke-miterlimit="4"/><path stroke-linecap="butt" transform="matrix(0.75, 0, 0, 0.75, 109.1959, 81.242868)" fill="none" stroke-linejoin="miter" d="M -0.000783974 0.499093 L 34.405468 0.499093 " stroke="#FDFCF9" stroke-width="1" stroke-opacity="1" stroke-miterlimit="4"/></svg>